<svg xmlns="http://www.w3.org/2000/svg" width="827.3944091796875" height="562.4046020507812" viewBox="-349.5882873535156 -334.6099548339844 827.3944091796875 562.4046020507812"><title>Neo4j Graph Visualization</title><desc>Created using Neo4j (http://www.neo4j.com/)</desc><g class="layer relationships"><g class="relationship" transform="translate(0 1.0206127620922383) rotate(361.02653066905566)"><path class="b-outline" fill="#A5ABB6" stroke="none" d="M 25 0.5 L 188.1558611602779 0.5 L 188.1558611602779 -0.5 L 25 -0.5 Z M 253.7222674102779 0.5 L 416.8781285705558 0.5 L 416.8781285705558 3.5 L 423.8781285705558 0 L 416.8781285705558 -3.5 L 416.8781285705558 -0.5 L 253.7222674102779 -0.5 Z"/><text text-anchor="middle" pointer-events="none" font-size="8px" fill="#000000" x="220.9390642852779" y="3" font-family="Helvetica Neue, Helvetica, Arial, sans-serif">NEXT_MISSION</text></g><g class="relationship" transform="translate(-246.31414052751222 -33.91765763916689) rotate(368.0732264104688)"><path class="b-outline" fill="#A5ABB6" stroke="none" d="M 25 0.5 L 97.43086505255431 0.5 L 97.43086505255431 -0.5 L 25 -0.5 Z M 144.3488338025543 0.5 L 216.77969885510862 0.5 L 216.77969885510862 3.5 L 223.77969885510862 0 L 216.77969885510862 -3.5 L 216.77969885510862 -0.5 L 144.3488338025543 -0.5 Z"/><text text-anchor="middle" pointer-events="none" font-size="8px" fill="#000000" x="120.88984942755431" y="3" font-family="Helvetica Neue, Helvetica, Arial, sans-serif">Appears_In</text></g><g class="relationship" transform="translate(-211.07958233203732 84.67124892131329) rotate(338.3816246009544)"><path class="b-outline" fill="#A5ABB6" stroke="none" d="M 25 0.5 L 86.56636412403535 0.5 L 86.56636412403535 -0.5 L 25 -0.5 Z M 133.48433287403535 0.5 L 195.0506969980707 0.5 L 195.0506969980707 3.5 L 202.0506969980707 0 L 195.0506969980707 -3.5 L 195.0506969980707 -0.5 L 133.48433287403535 -0.5 Z"/><text text-anchor="middle" pointer-events="none" font-size="8px" fill="#000000" x="110.02534849903535" y="3" font-family="Helvetica Neue, Helvetica, Arial, sans-serif">Appears_In</text></g><g class="relationship" transform="translate(-301.3627215335986 4.964750775665493) rotate(359.25017414387116)"><path class="b-outline" fill="#A5ABB6" stroke="none" d="M 25 0.5 L 123.73528074050415 0.5 L 123.73528074050415 -0.5 L 25 -0.5 Z M 170.65324949050415 0.5 L 269.3885302310083 0.5 L 269.3885302310083 3.5 L 276.3885302310083 0 L 269.3885302310083 -3.5 L 269.3885302310083 -0.5 L 170.65324949050415 -0.5 Z"/><text text-anchor="middle" pointer-events="none" font-size="8px" fill="#000000" x="147.19426511550415" y="3" font-family="Helvetica Neue, Helvetica, Arial, sans-serif">Appears_In</text></g><g class="relationship" transform="translate(321.2643672102625 -58.29002701496689) rotate(529.5400400188872)"><path class="b-outline" fill="#A5ABB6" stroke="none" d="M 25 0.5 L 136.3876911572667 0.5 L 136.3876911572667 -0.5 L 25 -0.5 Z M 183.3056599072667 0.5 L 294.6933510645334 0.5 L 294.6933510645334 3.5 L 301.6933510645334 0 L 294.6933510645334 -3.5 L 294.6933510645334 -0.5 L 183.3056599072667 -0.5 Z"/><text text-anchor="middle" pointer-events="none" font-size="8px" fill="#000000" x="159.8466755322667" y="3" transform="rotate(180 159.8466755322667 0)" font-family="Helvetica Neue, Helvetica, Arial, sans-serif">Appears_In</text></g><g class="relationship" transform="translate(-60.471411483402505 -145.02282873331887) rotate(427.5072879689508)"><path class="b-outline" fill="#A5ABB6" stroke="none" d="M 25 0.5 L 52.07499314514408 0.5 L 52.07499314514408 -0.5 L 25 -0.5 Z M 98.99296189514408 0.5 L 126.06795504028815 0.5 L 126.06795504028815 3.5 L 133.06795504028815 0 L 126.06795504028815 -3.5 L 126.06795504028815 -0.5 L 98.99296189514408 -0.5 Z"/><text text-anchor="middle" pointer-events="none" font-size="8px" fill="#000000" x="75.53397752014408" y="3" font-family="Helvetica Neue, Helvetica, Arial, sans-serif">Appears_In</text></g><g class="relationship" transform="translate(1.430403851017246 103.87539434146711) rotate(269.2032376187512)"><path class="b-outline" fill="#A5ABB6" stroke="none" d="M 25 0.5 L 26.0339262141973 0.5 L 26.0339262141973 -0.5 L 25 -0.5 Z M 69.8308012141973 0.5 L 70.8647274283946 0.5 L 70.8647274283946 3.5 L 77.8647274283946 0 L 70.8647274283946 -3.5 L 70.8647274283946 -0.5 L 69.8308012141973 -0.5 Z"/><text text-anchor="middle" pointer-events="none" font-size="8px" fill="#000000" x="47.9323637141973" y="3" transform="rotate(180 47.9323637141973 0)" font-family="Helvetica Neue, Helvetica, Arial, sans-serif">Appears…</text></g><g class="relationship" transform="translate(259.4784017828257 14.485812200773092) rotate(182.9706044189985)"><path class="b-outline" fill="#A5ABB6" stroke="none" d="M 25 0.5 L 102.95478759288355 0.5 L 102.95478759288355 -0.5 L 25 -0.5 Z M 149.87275634288355 0.5 L 227.8275439357671 0.5 L 227.8275439357671 3.5 L 234.8275439357671 0 L 227.8275439357671 -3.5 L 227.8275439357671 -0.5 L 149.87275634288355 -0.5 Z"/><text text-anchor="middle" pointer-events="none" font-size="8px" fill="#000000" x="126.41377196788355" y="3" transform="rotate(180 126.41377196788355 0)" font-family="Helvetica Neue, Helvetica, Arial, sans-serif">Appears_In</text></g><g class="relationship" transform="translate(173.032774536481 -17.152406400550703) rotate(534.0044077409094)"><path class="b-outline" fill="#A5ABB6" stroke="none" d="M 25 0.5 L 60.033256211845526 0.5 L 60.033256211845526 -0.5 L 25 -0.5 Z M 106.95122496184553 0.5 L 141.98448117369105 0.5 L 141.98448117369105 3.5 L 148.98448117369105 0 L 141.98448117369105 -3.5 L 141.98448117369105 -0.5 L 106.95122496184553 -0.5 Z"/><text text-anchor="middle" pointer-events="none" font-size="8px" fill="#000000" x="83.49224058684553" y="3" transform="rotate(180 83.49224058684553 0)" font-family="Helvetica Neue, Helvetica, Arial, sans-serif">Appears_In</text></g><g class="relationship" transform="translate(282.70986066467214 110.07872224178973) rotate(201.0946113143703)"><path class="b-outline" fill="#A5ABB6" stroke="none" d="M 25 0.5 L 124.54888386979118 0.5 L 124.54888386979118 -0.5 L 25 -0.5 Z M 171.46685261979118 0.5 L 271.01573648958237 0.5 L 271.01573648958237 3.5 L 278.01573648958237 0 L 271.01573648958237 -3.5 L 271.01573648958237 -0.5 L 171.46685261979118 -0.5 Z"/><text text-anchor="middle" pointer-events="none" font-size="8px" fill="#000000" x="148.00786824479118" y="3" transform="rotate(180 148.00786824479118 0)" font-family="Helvetica Neue, Helvetica, Arial, sans-serif">Appears_In</text></g><g class="relationship" transform="translate(66.91386277924279 -112.92424872504046) rotate(480.4234899152108)"><path class="b-outline" fill="#A5ABB6" stroke="none" d="M 25 0.5 L 39.1108583888533 0.5 L 39.1108583888533 -0.5 L 25 -0.5 Z M 86.0288271388533 0.5 L 100.1396855277066 0.5 L 100.1396855277066 3.5 L 107.1396855277066 0 L 100.1396855277066 -3.5 L 100.1396855277066 -0.5 L 86.0288271388533 -0.5 Z"/><text text-anchor="middle" pointer-events="none" font-size="8px" fill="#000000" x="62.5698427638533" y="3" transform="rotate(180 62.5698427638533 0)" font-family="Helvetica Neue, Helvetica, Arial, sans-serif">Appears_In</text></g><g class="relationship" transform="translate(-73.874843443738 198.7946310524734) rotate(290.48224856822094)"><path class="b-outline" fill="#A5ABB6" stroke="none" d="M 25 0.5 L 78.60148976726693 0.5 L 78.60148976726693 -0.5 L 25 -0.5 Z M 125.51945851726693 0.5 L 179.12094828453385 0.5 L 179.12094828453385 3.5 L 186.12094828453385 0 L 179.12094828453385 -3.5 L 179.12094828453385 -0.5 L 125.51945851726693 -0.5 Z"/><text text-anchor="middle" pointer-events="none" font-size="8px" fill="#000000" x="102.06047414226693" y="3" font-family="Helvetica Neue, Helvetica, Arial, sans-serif">Appears_In</text></g><g class="relationship" transform="translate(-320.58828568820485 58.50440205758602) rotate(349.8344794443735)"><path class="b-outline" fill="#A5ABB6" stroke="none" d="M 25 0.5 L 135.8915874326166 0.5 L 135.8915874326166 -0.5 L 25 -0.5 Z M 182.8095561826166 0.5 L 293.7011436152332 0.5 L 293.7011436152332 3.5 L 300.7011436152332 0 L 293.7011436152332 -3.5 L 293.7011436152332 -0.5 L 182.8095561826166 -0.5 Z"/><text text-anchor="middle" pointer-events="none" font-size="8px" fill="#000000" x="159.3505718076166" y="3" font-family="Helvetica Neue, Helvetica, Arial, sans-serif">Appears_In</text></g><g class="relationship" transform="translate(188.9887035187849 81.52331755640732) rotate(203.0723410203601)"><path class="b-outline" fill="#A5ABB6" stroke="none" d="M 25 0.5 L 75.75106325534605 0.5 L 75.75106325534605 -0.5 L 25 -0.5 Z M 122.66903200534605 0.5 L 173.4200952606921 0.5 L 173.4200952606921 3.5 L 180.4200952606921 0 L 173.4200952606921 -3.5 L 173.4200952606921 -0.5 L 122.66903200534605 -0.5 Z"/><text text-anchor="middle" pointer-events="none" font-size="8px" fill="#000000" x="99.21004763034605" y="3" transform="rotate(180 99.21004763034605 0)" font-family="Helvetica Neue, Helvetica, Arial, sans-serif">Appears_In</text></g><g class="relationship" transform="translate(-112.24339264386536 102.38902382750847) rotate(317.9144132323845)"><path class="b-outline" fill="#A5ABB6" stroke="none" d="M 25 0.5 L 48.66200139305933 0.5 L 48.66200139305933 -0.5 L 25 -0.5 Z M 95.57997014305933 0.5 L 119.24197153611865 0.5 L 119.24197153611865 3.5 L 126.24197153611865 0 L 119.24197153611865 -3.5 L 119.24197153611865 -0.5 L 95.57997014305933 -0.5 Z"/><text text-anchor="middle" pointer-events="none" font-size="8px" fill="#000000" x="72.12098576805933" y="3" font-family="Helvetica Neue, Helvetica, Arial, sans-serif">Appears_In</text></g><g class="relationship" transform="translate(121.27011933287054 -69.52861959561181) rotate(509.81117551380356)"><path class="b-outline" fill="#A5ABB6" stroke="none" d="M 25 0.5 L 43.190206691736435 0.5 L 43.190206691736435 -0.5 L 25 -0.5 Z M 90.10817544173644 0.5 L 108.29838213347287 0.5 L 108.29838213347287 3.5 L 115.29838213347287 0 L 108.29838213347287 -3.5 L 108.29838213347287 -0.5 L 90.10817544173644 -0.5 Z"/><text text-anchor="middle" pointer-events="none" font-size="8px" fill="#000000" x="66.64919106673644" y="3" transform="rotate(180 66.64919106673644 0)" font-family="Helvetica Neue, Helvetica, Arial, sans-serif">Appears_In</text></g><g class="relationship" transform="translate(-129.20680314655672 -73.02630516998643) rotate(389.81652097065523)"><path class="b-outline" fill="#A5ABB6" stroke="none" d="M 25 0.5 L 47.501313829132 0.5 L 47.501313829132 -0.5 L 25 -0.5 Z M 94.419282579132 0.5 L 116.920596408264 0.5 L 116.920596408264 3.5 L 123.920596408264 0 L 116.920596408264 -3.5 L 116.920596408264 -0.5 L 94.419282579132 -0.5 Z"/><text text-anchor="middle" pointer-events="none" font-size="8px" fill="#000000" x="70.960298204132" y="3" font-family="Helvetica Neue, Helvetica, Arial, sans-serif">Appears_In</text></g><g class="relationship" transform="translate(183.9190594350253 -305.6099628829767) rotate(480.9556102938188)"><path class="b-outline" fill="#A5ABB6" stroke="none" d="M 25 0.5 L 151.8205798541721 0.5 L 151.8205798541721 -0.5 L 25 -0.5 Z M 198.7385486041721 0.5 L 325.5591284583442 0.5 L 325.5591284583442 3.5 L 332.5591284583442 0 L 325.5591284583442 -3.5 L 325.5591284583442 -0.5 L 198.7385486041721 -0.5 Z"/><text text-anchor="middle" pointer-events="none" font-size="8px" fill="#000000" x="175.2795642291721" y="3" transform="rotate(180 175.2795642291721 0)" font-family="Helvetica Neue, Helvetica, Arial, sans-serif">Appears_In</text></g><g class="relationship" transform="translate(227.84986609900074 -76.55987937337305) rotate(521.1968292783886)"><path class="b-outline" fill="#A5ABB6" stroke="none" d="M 25 0.5 L 93.3887350065005 0.5 L 93.3887350065005 -0.5 L 25 -0.5 Z M 140.3067037565005 0.5 L 208.695438763001 0.5 L 208.695438763001 3.5 L 215.695438763001 0 L 208.695438763001 -3.5 L 208.695438763001 -0.5 L 140.3067037565005 -0.5 Z"/><text text-anchor="middle" pointer-events="none" font-size="8px" fill="#000000" x="116.8477193815005" y="3" transform="rotate(180 116.8477193815005 0)" font-family="Helvetica Neue, Helvetica, Arial, sans-serif">Appears_In</text></g><g class="relationship" transform="translate(202.773581367754 -170.90733396006766) rotate(499.70600867636176)"><path class="b-outline" fill="#A5ABB6" stroke="none" d="M 25 0.5 L 105.96613003608769 0.5 L 105.96613003608769 -0.5 L 25 -0.5 Z M 152.8840987860877 0.5 L 233.85022882217538 0.5 L 233.85022882217538 3.5 L 240.85022882217538 0 L 233.85022882217538 -3.5 L 233.85022882217538 -0.5 L 152.8840987860877 -0.5 Z"/><text text-anchor="middle" pointer-events="none" font-size="8px" fill="#000000" x="129.4251144110877" y="3" transform="rotate(180 129.4251144110877 0)" font-family="Helvetica Neue, Helvetica, Arial, sans-serif">Appears_In</text></g><g class="relationship" transform="translate(75.20471733645888 196.0351450594962) rotate(248.91154131071823)"><path class="b-outline" fill="#A5ABB6" stroke="none" d="M 25 0.5 L 77.547495468156 0.5 L 77.547495468156 -0.5 L 25 -0.5 Z M 124.465464218156 0.5 L 177.012959686312 0.5 L 177.012959686312 3.5 L 184.012959686312 0 L 177.012959686312 -3.5 L 177.012959686312 -0.5 L 124.465464218156 -0.5 Z"/><text text-anchor="middle" pointer-events="none" font-size="8px" fill="#000000" x="101.006479843156" y="3" transform="rotate(180 101.006479843156 0)" font-family="Helvetica Neue, Helvetica, Arial, sans-serif">Appears_In</text></g><g class="relationship" transform="translate(210.43002154005788 176.4739336969789) rotate(219.8208283347533)"><path class="b-outline" fill="#A5ABB6" stroke="none" d="M 25 0.5 L 110.03067015448406 0.5 L 110.03067015448406 -0.5 L 25 -0.5 Z M 156.94863890448406 0.5 L 241.9793090589681 0.5 L 241.9793090589681 3.5 L 248.9793090589681 0 L 241.9793090589681 -3.5 L 241.9793090589681 -0.5 L 156.94863890448406 -0.5 Z"/><text text-anchor="middle" pointer-events="none" font-size="8px" fill="#000000" x="133.48965452948406" y="3" transform="rotate(180 133.48965452948406 0)" font-family="Helvetica Neue, Helvetica, Arial, sans-serif">Appears_In</text></g><g class="relationship" transform="translate(39.125786340394384 -208.5316047764146) rotate(460.57599971483586)"><path class="b-outline" fill="#A5ABB6" stroke="none" d="M 25 0.5 L 79.62778665224789 0.5 L 79.62778665224789 -0.5 L 25 -0.5 Z M 126.54575540224789 0.5 L 181.17354205449578 0.5 L 181.17354205449578 3.5 L 188.17354205449578 0 L 181.17354205449578 -3.5 L 181.17354205449578 -0.5 L 126.54575540224789 -0.5 Z"/><text text-anchor="middle" pointer-events="none" font-size="8px" fill="#000000" x="103.08677102724789" y="3" transform="rotate(180 103.08677102724789 0)" font-family="Helvetica Neue, Helvetica, Arial, sans-serif">Appears_In</text></g><g class="relationship" transform="translate(321.2643672102625 -58.29002701496689) rotate(387.8377195443957)"><path class="b-outline" fill="#A5ABB6" stroke="none" d="M 25 0.5 L 45.15766492700868 0.5 L 45.15766492700868 -0.5 L 25 -0.5 Z M 92.07563367700868 0.5 L 112.23329860401736 0.5 L 112.23329860401736 3.5 L 119.23329860401736 0 L 112.23329860401736 -3.5 L 112.23329860401736 -0.5 L 92.07563367700868 -0.5 Z"/><text text-anchor="middle" pointer-events="none" font-size="8px" fill="#000000" x="68.61664930200868" y="3" font-family="Helvetica Neue, Helvetica, Arial, sans-serif">Appears_In</text></g><g class="relationship" transform="translate(1.430403851017246 103.87539434146711) rotate(488.42712274442505)"><path class="b-outline" fill="#A5ABB6" stroke="none" d="M 24.018736134675446,-6.953439040707552 L 24.277555179777966,-5.987513214418485 A 133.90648747016786 133.90648747016786 0 0 1 42.13121840007683,-9.491724830526636 L 42.00572869216775,-10.4838197519978 A 134.90648747016786 134.90648747016786 0 0 0 24.018736134675446,-6.953439040707552 Z M 72.06743376781671,-10.909568371041274 L 71.97008982525145,-9.914317570064014 A 133.90648747016786 133.90648747016786 0 0 1 89.91582926839287,-6.91711466181814 L 89.22174658157482,-3.998510676372452 L 96.8415856822358,-5.784022390150328 L 90.84127285081692,-10.80858664241239 L 90.14719016399887,-7.889982656966701 A 134.90648747016786 134.90648747016786 0 0 0 72.06743376781671,-10.909568371041274"/><text text-anchor="middle" pointer-events="none" font-size="8px" fill="#000000" x="57.03176464156541" y="-8.03678878944396" transform="rotate(180 57.03176464156541 -11.03678878944396)" font-family="Helvetica Neue, Helvetica, Arial, sans-serif">Sibling</text></g><g class="relationship" transform="translate(1.430403851017246 103.87539434146711) rotate(411.3225637032719)"><path class="b-outline" fill="#A5ABB6" stroke="none" d="M 24.018736134675446,-6.953439040707552 L 24.277555179777966,-5.987513214418485 A 127.72654896502453 127.72654896502453 0 0 1 38.1712394644867,-8.893772327401336 L 38.0211972116587,-9.88245191268986 A 128.72654896502453 128.72654896502453 0 0 0 24.018736134675446,-6.953439040707552 Z M 72.9478930875292,-10.389434811276061 L 72.8266106124228,-9.39681677737174 A 127.72654896502453 127.72654896502453 0 0 1 86.79879581070468,-6.895048238943093 L 86.1067742044145,-3.975954870030825 L 93.72535060588166,-5.766846719084745 L 87.72149128575822,-10.787172730826118 L 87.02946967946805,-7.868079361913849 A 128.72654896502453 128.72654896502453 0 0 0 72.9478930875292,-10.389434811276061"/><text text-anchor="middle" pointer-events="none" font-size="8px" fill="#000000" x="55.474525887150655" y="-7.826183078614974" font-family="Helvetica Neue, Helvetica, Arial, sans-serif">Relative</text></g><g class="relationship" transform="translate(1.430403851017246 103.87539434146711) rotate(348.03427464280946)"><path class="b-outline" fill="#A5ABB6" stroke="none" d="M 25 0.5 L 201.6971431744995 0.5 L 201.6971431744995 -0.5 L 25 -0.5 Z M 248.6151119244995 0.5 L 425.312255098999 0.5 L 425.312255098999 3.5 L 432.312255098999 0 L 425.312255098999 -3.5 L 425.312255098999 -0.5 L 248.6151119244995 -0.5 Z"/><text text-anchor="middle" pointer-events="none" font-size="8px" fill="#000000" x="225.1561275494995" y="3" font-family="Helvetica Neue, Helvetica, Arial, sans-serif">Appears_In</text></g><g class="relationship" transform="translate(259.4784017828257 14.485812200773092) rotate(358.3591853823593)"><path class="b-outline" fill="#A5ABB6" stroke="none" d="M 25 0.5 L 67.74368884592752 0.5 L 67.74368884592752 -0.5 L 25 -0.5 Z M 114.66165759592752 0.5 L 157.40534644185504 0.5 L 157.40534644185504 3.5 L 164.40534644185504 0 L 157.40534644185504 -3.5 L 157.40534644185504 -0.5 L 114.66165759592752 -0.5 Z"/><text text-anchor="middle" pointer-events="none" font-size="8px" fill="#000000" x="91.20267322092752" y="3" font-family="Helvetica Neue, Helvetica, Arial, sans-serif">Appears_In</text></g><g class="relationship" transform="translate(282.70986066467214 110.07872224178973) rotate(328.6928987608219)"><path class="b-outline" fill="#A5ABB6" stroke="none" d="M 25 0.5 L 70.2421555669925 0.5 L 70.2421555669925 -0.5 L 25 -0.5 Z M 117.1601243169925 0.5 L 162.402279883985 0.5 L 162.402279883985 3.5 L 169.402279883985 0 L 162.402279883985 -3.5 L 162.402279883985 -0.5 L 117.1601243169925 -0.5 Z"/><text text-anchor="middle" pointer-events="none" font-size="8px" fill="#000000" x="93.7011399419925" y="3" font-family="Helvetica Neue, Helvetica, Arial, sans-serif">Appears_In</text></g><g class="relationship" transform="translate(66.91386277924279 -112.92424872504046) rotate(377.71488535528545)"><path class="b-outline" fill="#A5ABB6" stroke="none" d="M 25 0.5 L 173.49202074429024 0.5 L 173.49202074429024 -0.5 L 25 -0.5 Z M 220.40998949429024 0.5 L 368.9020102385805 0.5 L 368.9020102385805 3.5 L 375.9020102385805 0 L 368.9020102385805 -3.5 L 368.9020102385805 -0.5 L 220.40998949429024 -0.5 Z"/><text text-anchor="middle" pointer-events="none" font-size="8px" fill="#000000" x="196.95100511929024" y="3" font-family="Helvetica Neue, Helvetica, Arial, sans-serif">Appears_In</text></g><g class="relationship" transform="translate(-73.874843443738 198.7946310524734) rotate(358.93956725701184)"><path class="b-outline" fill="#A5ABB6" stroke="none" d="M 24.018736134675446,-6.953439040707552 L 24.277555179777966,-5.987513214418485 A 189.07809239613022 189.07809239613022 0 0 1 56.5165315566897,-11.691423756019162 L 56.42821865520412,-12.68751653856063 A 190.07809239613022 190.07809239613022 0 0 0 24.018736134675446,-6.953439040707552 Z M 85.59544912991679,-13.026545236314718 L 85.53031336140032,-12.028668825299917 A 189.07809239613022 189.07809239613022 0 0 1 117.89316162136907,-7.0756651103919115 L 117.18427047668457,-4.160622512935077 L 124.81307620621578,-5.907426205704203 L 118.83834981428176,-10.962388573667692 L 118.12945866959726,-8.047345976210856 A 190.07809239613022 190.07809239613022 0 0 0 85.59544912991679,-13.026545236314718"/><text text-anchor="middle" pointer-events="none" font-size="8px" fill="#000000" x="71.01113233073619" y="-9.91738747540822" font-family="Helvetica Neue, Helvetica, Arial, sans-serif">Father</text></g><g class="relationship" transform="translate(-73.874843443738 198.7946310524734) rotate(308.42712274442505)"><path class="b-outline" fill="#A5ABB6" stroke="none" d="M 24.018736134675446,-6.953439040707552 L 24.277555179777966,-5.987513214418485 A 133.90648747016786 133.90648747016786 0 0 1 42.13121840007683,-9.491724830526636 L 42.00572869216775,-10.4838197519978 A 134.90648747016786 134.90648747016786 0 0 0 24.018736134675446,-6.953439040707552 Z M 72.06743376781671,-10.909568371041274 L 71.97008982525145,-9.914317570064014 A 133.90648747016786 133.90648747016786 0 0 1 89.91582926839287,-6.91711466181814 L 89.22174658157482,-3.998510676372452 L 96.8415856822358,-5.784022390150328 L 90.84127285081692,-10.80858664241239 L 90.14719016399887,-7.889982656966701 A 134.90648747016786 134.90648747016786 0 0 0 72.06743376781671,-10.909568371041274"/><text text-anchor="middle" pointer-events="none" font-size="8px" fill="#000000" x="57.03176464156541" y="-8.03678878944396" font-family="Helvetica Neue, Helvetica, Arial, sans-serif">Sibling</text></g><g class="relationship" transform="translate(188.9887035187849 81.52331755640732) rotate(344.4166609491997)"><path class="b-outline" fill="#A5ABB6" stroke="none" d="M 25 0.5 L 107.90729380758623 0.5 L 107.90729380758623 -0.5 L 25 -0.5 Z M 154.82526255758623 0.5 L 237.73255636517246 0.5 L 237.73255636517246 3.5 L 244.73255636517246 0 L 237.73255636517246 -3.5 L 237.73255636517246 -0.5 L 154.82526255758623 -0.5 Z"/><text text-anchor="middle" pointer-events="none" font-size="8px" fill="#000000" x="131.36627818258623" y="3" font-family="Helvetica Neue, Helvetica, Arial, sans-serif">Appears_In</text></g><g class="relationship" transform="translate(121.27011933287054 -69.52861959561181) rotate(373.49282598988395)"><path class="b-outline" fill="#A5ABB6" stroke="none" d="M 25 0.5 L 141.4574369177688 0.5 L 141.4574369177688 -0.5 L 25 -0.5 Z M 188.3754056677688 0.5 L 304.8328425855376 0.5 L 304.8328425855376 3.5 L 311.8328425855376 0 L 304.8328425855376 -3.5 L 304.8328425855376 -0.5 L 188.3754056677688 -0.5 Z"/><text text-anchor="middle" pointer-events="none" font-size="8px" fill="#000000" x="164.9164212927688" y="3" font-family="Helvetica Neue, Helvetica, Arial, sans-serif">Appears_In</text></g><g class="relationship" transform="translate(183.9190594350253 -305.6099628829767) rotate(506.1596572197383)"><path class="b-outline" fill="#A5ABB6" stroke="none" d="M 24.018736134675446,-6.953439040707552 L 24.277555179777966,-5.987513214418485 A 238.5476195839782 238.5476195839782 0 0 1 67.11975452850103,-13.366050898860323 L 67.04053148785012,-14.362907814284995 A 239.5476195839782 239.5476195839782 0 0 0 24.018736134675446,-6.953439040707552 Z M 100.21441505577766,-14.69480526131349 L 100.1551525476031,-13.69656282827188 A 238.5476195839782 238.5476195839782 0 0 1 143.1364026530031,-7.17666997842332 L 142.41807839815664,-4.2639375387888006 L 150.05249905462475,-5.986035457053965 L 144.09416832613175,-11.060313231269346 L 143.3758440712853,-8.147580791634827 A 239.5476195839782 239.5476195839782 0 0 0 100.21441505577766,-14.69480526131349"/><text text-anchor="middle" pointer-events="none" font-size="8px" fill="#000000" x="83.6267228452942" y="-11.603863327438035" transform="rotate(180 83.6267228452942 -14.603863327438035)" font-family="Helvetica Neue, Helvetica, Arial, sans-serif">Spouse</text></g><g class="relationship" transform="translate(183.9190594350253 -305.6099628829767) rotate(442.0319941099185)"><path class="b-outline" fill="#A5ABB6" stroke="none" d="M 24.018736134675446,-6.953439040707552 L 24.277555179777966,-5.987513214418485 A 163.29397638232496 163.29397638232496 0 0 1 49.98159848449332,-10.70980357357314 L 49.880189062661486,-11.704648349989924 A 164.29397638232496 164.29397638232496 0 0 0 24.018736134675446,-6.953439040707552 Z M 79.0493736927863,-12.074782816028005 L 78.97324048480044,-11.07768516050885 A 163.29397638232496 163.29397638232496 0 0 1 104.7888327246863,-7.009139259232616 L 104.08615487910997,-4.092592697743118 L 111.71122100909119,-5.855648713136095 L 105.72573651878808,-10.897868007885279 L 105.02305867321175,-7.981321446395781 A 164.29397638232496 164.29397638232496 0 0 0 79.0493736927863,-12.074782816028005"/><text text-anchor="middle" pointer-events="none" font-size="8px" fill="#000000" x="64.46289423847222" y="-9.038435354620987" font-family="Helvetica Neue, Helvetica, Arial, sans-serif">Father</text></g><g class="relationship" transform="translate(183.9190594350253 -305.6099628829767) rotate(409.9097747308384)"><path class="b-outline" fill="#A5ABB6" stroke="none" d="M 25 0.5 L 178.7008413130197 0.5 L 178.7008413130197 -0.5 L 25 -0.5 Z M 225.6188100630197 0.5 L 379.3196513760394 0.5 L 379.3196513760394 3.5 L 386.3196513760394 0 L 379.3196513760394 -3.5 L 379.3196513760394 -0.5 L 225.6188100630197 -0.5 Z"/><text text-anchor="middle" pointer-events="none" font-size="8px" fill="#000000" x="202.1598256880197" y="3" font-family="Helvetica Neue, Helvetica, Arial, sans-serif">Appears_In</text></g><g class="relationship" transform="translate(202.773581367754 -170.90733396006766) rotate(262.0319941099185)"><path class="b-outline" fill="#A5ABB6" stroke="none" d="M 24.018736134675446,-6.953439040707552 L 24.277555179777966,-5.987513214418485 A 163.29397638232496 163.29397638232496 0 0 1 52.40863401398538,-10.938911729655842 L 52.32208757475255,-11.935159547147123 A 164.29397638232496 164.29397638232496 0 0 0 24.018736134675446,-6.953439040707552 Z M 76.60241234919292,-12.24325815050463 L 76.54117293949153,-11.245135044520481 A 163.29397638232496 163.29397638232496 0 0 1 104.7888327246863,-7.009139259232616 L 104.08615487910997,-4.092592697743118 L 111.71122100909119,-5.855648713136095 L 105.72573651878808,-10.897868007885279 L 105.02305867321175,-7.981321446395781 A 164.29397638232496 164.29397638232496 0 0 0 76.60241234919292,-12.24325815050463"/><text text-anchor="middle" pointer-events="none" font-size="8px" fill="#000000" x="64.46289423847222" y="-9.038435354620987" transform="rotate(180 64.46289423847222 -12.038435354620987)" font-family="Helvetica Neue, Helvetica, Arial, sans-serif">Child</text></g><g class="relationship" transform="translate(202.773581367754 -170.90733396006766) rotate(192.94786895905202)"><path class="b-outline" fill="#A5ABB6" stroke="none" d="M 24.018736134675446,-6.953439040707552 L 24.277555179777966,-5.987513214418485 A 225.99944304567575 225.99944304567575 0 0 1 68.34789476416367,-13.227583347750652 L 68.28407770220974,-14.225544961543278 A 226.99944304567575 226.99944304567575 0 0 0 24.018736134675446,-6.953439040707552 Z M 92.55515198892354,-14.477279823000856 L 92.51204775644138,-13.478209242339943 A 225.99944304567575 225.99944304567575 0 0 1 136.7230757284459,-7.153776281411782 L 136.00688953198284,-4.240517396246275 L 143.64004415990925,-5.96821830385888 L 137.67799065706333,-11.038121461632457 L 136.96180446060026,-8.12486257646695 A 226.99944304567575 226.99944304567575 0 0 0 92.55515198892354,-14.477279823000856"/><text text-anchor="middle" pointer-events="none" font-size="8px" fill="#000000" x="80.42143340349789" y="-11.17607571308369" transform="rotate(180 80.42143340349789 -14.17607571308369)" font-family="Helvetica Neue, Helvetica, Arial, sans-serif">Child</text></g><g class="relationship" transform="translate(202.773581367754 -170.90733396006766) rotate(396.1850138517515)"><path class="b-outline" fill="#A5ABB6" stroke="none" d="M 25 0.5 L 125.45583744157702 0.5 L 125.45583744157702 -0.5 L 25 -0.5 Z M 172.37380619157702 0.5 L 272.82964363315403 0.5 L 272.82964363315403 3.5 L 279.82964363315403 0 L 272.82964363315403 -3.5 L 272.82964363315403 -0.5 L 172.37380619157702 -0.5 Z"/><text text-anchor="middle" pointer-events="none" font-size="8px" fill="#000000" x="148.91482181657702" y="3" font-family="Helvetica Neue, Helvetica, Arial, sans-serif">Appears_In</text></g><g class="relationship" transform="translate(75.20471733645888 196.0351450594962) rotate(231.3225637032719)"><path class="b-outline" fill="#A5ABB6" stroke="none" d="M 24.018736134675446,-6.953439040707552 L 24.277555179777966,-5.987513214418485 A 127.72654896502453 127.72654896502453 0 0 1 38.1712394644867,-8.893772327401336 L 38.0211972116587,-9.88245191268986 A 128.72654896502453 128.72654896502453 0 0 0 24.018736134675446,-6.953439040707552 Z M 72.9478930875292,-10.389434811276061 L 72.8266106124228,-9.39681677737174 A 127.72654896502453 127.72654896502453 0 0 1 86.79879581070468,-6.895048238943093 L 86.1067742044145,-3.975954870030825 L 93.72535060588166,-5.766846719084745 L 87.72149128575822,-10.787172730826118 L 87.02946967946805,-7.868079361913849 A 128.72654896502453 128.72654896502453 0 0 0 72.9478930875292,-10.389434811276061"/><text text-anchor="middle" pointer-events="none" font-size="8px" fill="#000000" x="55.474525887150655" y="-7.826183078614974" transform="rotate(180 55.474525887150655 -10.826183078614974)" font-family="Helvetica Neue, Helvetica, Arial, sans-serif">Relative</text></g><g class="relationship" transform="translate(75.20471733645888 196.0351450594962) rotate(538.9395672570118)"><path class="b-outline" fill="#A5ABB6" stroke="none" d="M 24.018736134675446,-6.953439040707552 L 24.277555179777966,-5.987513214418485 A 189.07809239613022 189.07809239613022 0 0 1 58.947187232888226,-11.89113344650238 L 58.87172963179941,-12.888282457652622 A 190.07809239613022 190.07809239613022 0 0 0 24.018736134675446,-6.953439040707552 Z M 83.14793172057361,-13.1704597177702 L 83.0956723302788,-12.17182617330755 A 189.07809239613022 189.07809239613022 0 0 1 117.89316162136907,-7.0756651103919115 L 117.18427047668457,-4.160622512935077 L 124.81307620621578,-5.907426205704203 L 118.83834981428176,-10.962388573667692 L 118.12945866959726,-8.047345976210856 A 190.07809239613022 190.07809239613022 0 0 0 83.14793172057361,-13.1704597177702"/><text text-anchor="middle" pointer-events="none" font-size="8px" fill="#000000" x="71.01113233073619" y="-9.91738747540822" transform="rotate(180 71.01113233073619 -12.91738747540822)" font-family="Helvetica Neue, Helvetica, Arial, sans-serif">Child</text></g><g class="relationship" transform="translate(210.43002154005788 176.4739336969789) rotate(324.91963419999996)"><path class="b-outline" fill="#A5ABB6" stroke="none" d="M 25 0.5 L 118.68592462068722 0.5 L 118.68592462068722 -0.5 L 25 -0.5 Z M 165.60389337068722 0.5 L 259.28981799137443 0.5 L 259.28981799137443 3.5 L 266.28981799137443 0 L 259.28981799137443 -3.5 L 259.28981799137443 -0.5 L 165.60389337068722 -0.5 Z"/><text text-anchor="middle" pointer-events="none" font-size="8px" fill="#000000" x="142.14490899568722" y="3" font-family="Helvetica Neue, Helvetica, Arial, sans-serif">Appears_In</text></g><g class="relationship" transform="translate(39.125786340394384 -208.5316047764146) rotate(372.947868959052)"><path class="b-outline" fill="#A5ABB6" stroke="none" d="M 24.018736134675446,-6.953439040707552 L 24.277555179777966,-5.987513214418485 A 225.99944304567575 225.99944304567575 0 0 1 65.02973344895929,-12.990862640560323 L 64.95123422110936,-13.987776815014143 A 226.99944304567575 226.99944304567575 0 0 0 24.018736134675446,-6.953439040707552 Z M 95.89221012963222,-14.308690598709234 L 95.83440516442606,-13.31036270367801 A 225.99944304567575 225.99944304567575 0 0 1 136.7230757284459,-7.153776281411782 L 136.00688953198284,-4.240517396246275 L 143.64004415990925,-5.96821830385888 L 137.67799065706333,-11.038121461632457 L 136.96180446060026,-8.12486257646695 A 226.99944304567575 226.99944304567575 0 0 0 95.89221012963222,-14.308690598709234"/><text text-anchor="middle" pointer-events="none" font-size="8px" fill="#000000" x="80.42143340349789" y="-11.17607571308369" font-family="Helvetica Neue, Helvetica, Arial, sans-serif">Mother</text></g><g class="relationship" transform="translate(39.125786340394384 -208.5316047764146) rotate(326.1596572197383)"><path class="b-outline" fill="#A5ABB6" stroke="none" d="M 24.018736134675446,-6.953439040707552 L 24.277555179777966,-5.987513214418485 A 238.5476195839782 238.5476195839782 0 0 1 67.11975452850103,-13.366050898860323 L 67.04053148785012,-14.362907814284995 A 239.5476195839782 239.5476195839782 0 0 0 24.018736134675446,-6.953439040707552 Z M 100.21441505577766,-14.69480526131349 L 100.1551525476031,-13.69656282827188 A 238.5476195839782 238.5476195839782 0 0 1 143.1364026530031,-7.17666997842332 L 142.41807839815664,-4.2639375387888006 L 150.05249905462475,-5.986035457053965 L 144.09416832613175,-11.060313231269346 L 143.3758440712853,-8.147580791634827 A 239.5476195839782 239.5476195839782 0 0 0 100.21441505577766,-14.69480526131349"/><text text-anchor="middle" pointer-events="none" font-size="8px" fill="#000000" x="83.6267228452942" y="-11.603863327438035" font-family="Helvetica Neue, Helvetica, Arial, sans-serif">Spouse</text></g></g><g class="layer nodes"><g class="node" aria-label="graph-node29" transform="translate(0,1.0206127620922383)"><circle class="b-outline" cx="0" cy="0" r="25" fill="#F79767" stroke="#f36924" stroke-width="2px"/><text class="caption" text-anchor="middle" pointer-events="none" x="0" y="5" font-size="10px" fill="#FFFFFF" font-family="Helvetica Neue, Helvetica, Arial, sans-serif"> Emissary</text></g><g class="node" aria-label="graph-node676" transform="translate(-320.58828568820485,58.50440205758602)"><circle class="b-outline" cx="0" cy="0" r="25" fill="#57C7E3" stroke="#23b3d7" stroke-width="2px"/><text class="caption" text-anchor="middle" pointer-events="none" x="0" y="5" font-size="10px" fill="#2A2C34" font-family="Helvetica Neue, Helvetica, Arial, sans-serif"> Jasad</text></g><g class="node" aria-label="graph-node693" transform="translate(-112.24339264386536,102.38902382750847)"><circle class="b-outline" cx="0" cy="0" r="25" fill="#57C7E3" stroke="#23b3d7" stroke-width="2px"/><text class="caption" text-anchor="middle" pointer-events="none" x="0" y="5" font-size="10px" fill="#2A2C34" font-family="Helvetica Neue, Helvetica, Arial, sans-serif"> Doran</text></g><g class="node" aria-label="graph-node789" transform="translate(227.84986609900074,-76.55987937337305)"><circle class="b-outline" cx="0" cy="0" r="25" fill="#57C7E3" stroke="#23b3d7" stroke-width="2px"/><text class="caption" text-anchor="middle" pointer-events="none" x="0" y="0" font-size="10px" fill="#2A2C34" font-family="Helvetica Neue, Helvetica, Arial, sans-serif"> Locutus of</text><text class="caption" text-anchor="middle" pointer-events="none" x="0" y="10" font-size="10px" fill="#2A2C34" font-family="Helvetica Neue, Helvetica, Arial, sans-serif"> Borg</text></g><g class="node" aria-label="graph-node830" transform="translate(39.125786340394384,-208.5316047764146)"><circle class="b-outline" cx="0" cy="0" r="25" fill="#57C7E3" stroke="#23b3d7" stroke-width="2px"/><text class="caption" text-anchor="middle" pointer-events="none" x="0" y="0" font-size="10px" fill="#2A2C34" font-family="Helvetica Neue, Helvetica, Arial, sans-serif"> Jennifer</text><text class="caption" text-anchor="middle" pointer-events="none" x="0" y="10" font-size="10px" fill="#2A2C34" font-family="Helvetica Neue, Helvetica, Arial, sans-serif"> Sisko</text></g><g class="node" aria-label="graph-node75" transform="translate(448.80608662621614,9.062435706286237)"><circle class="b-outline" cx="0" cy="0" r="25" fill="#F79767" stroke="#f36924" stroke-width="2px"/><text class="caption" text-anchor="middle" pointer-events="none" x="0" y="0" font-size="10px" fill="#FFFFFF" font-family="Helvetica Neue, Helvetica, Arial, sans-serif"> Past</text><text class="caption" text-anchor="middle" pointer-events="none" x="0" y="10" font-size="10px" fill="#FFFFFF" font-family="Helvetica Neue, Helvetica, Arial, sans-serif"> Prolog…</text></g><g class="node" aria-label="graph-node318" transform="translate(-301.3627215335986,4.964750775665493)"><circle class="b-outline" cx="0" cy="0" r="25" fill="#57C7E3" stroke="#23b3d7" stroke-width="2px"/><text class="caption" text-anchor="middle" pointer-events="none" x="0" y="5" font-size="10px" fill="#2A2C34" font-family="Helvetica Neue, Helvetica, Arial, sans-serif"> Opaka</text></g><g class="node" aria-label="graph-node184" transform="translate(-246.31414052751222,-33.91765763916689)"><circle class="b-outline" cx="0" cy="0" r="25" fill="#57C7E3" stroke="#23b3d7" stroke-width="2px"/><text class="caption" text-anchor="middle" pointer-events="none" x="0" y="0" font-size="10px" fill="#2A2C34" font-family="Helvetica Neue, Helvetica, Arial, sans-serif"> Jean-Luc</text><text class="caption" text-anchor="middle" pointer-events="none" x="0" y="10" font-size="10px" fill="#2A2C34" font-family="Helvetica Neue, Helvetica, Arial, sans-serif"> Picard</text></g><g class="node" aria-label="graph-node244" transform="translate(-211.07958233203732,84.67124892131329)"><circle class="b-outline" cx="0" cy="0" r="25" fill="#57C7E3" stroke="#23b3d7" stroke-width="2px"/><text class="caption" text-anchor="middle" pointer-events="none" x="0" y="0" font-size="10px" fill="#2A2C34" font-family="Helvetica Neue, Helvetica, Arial, sans-serif"> Maggie</text><text class="caption" text-anchor="middle" pointer-events="none" x="0" y="10" font-size="10px" fill="#2A2C34" font-family="Helvetica Neue, Helvetica, Arial, sans-serif"> Hubbell</text></g><g class="node" aria-label="graph-node473" transform="translate(173.032774536481,-17.152406400550703)"><circle class="b-outline" cx="0" cy="0" r="25" fill="#57C7E3" stroke="#23b3d7" stroke-width="2px"/><text class="caption" text-anchor="middle" pointer-events="none" x="0" y="0" font-size="10px" fill="#2A2C34" font-family="Helvetica Neue, Helvetica, Arial, sans-serif"> Curzon</text><text class="caption" text-anchor="middle" pointer-events="none" x="0" y="10" font-size="10px" fill="#2A2C34" font-family="Helvetica Neue, Helvetica, Arial, sans-serif"> Dax</text></g><g class="node" aria-label="graph-node648" transform="translate(-73.874843443738,198.7946310524734)"><circle class="b-outline" cx="0" cy="0" r="25" fill="#57C7E3" stroke="#23b3d7" stroke-width="2px"/><text class="caption" text-anchor="middle" pointer-events="none" x="0" y="5" font-size="10px" fill="#2A2C34" font-family="Helvetica Neue, Helvetica, Arial, sans-serif"> Rom</text></g><g class="node" aria-label="graph-node706" transform="translate(-129.20680314655672,-73.02630516998643)"><circle class="b-outline" cx="0" cy="0" r="25" fill="#57C7E3" stroke="#23b3d7" stroke-width="2px"/><text class="caption" text-anchor="middle" pointer-events="none" x="0" y="5" font-size="10px" fill="#2A2C34" font-family="Helvetica Neue, Helvetica, Arial, sans-serif"> Jones</text></g><g class="node" aria-label="graph-node811" transform="translate(75.20471733645888,196.0351450594962)"><circle class="b-outline" cx="0" cy="0" r="25" fill="#57C7E3" stroke="#23b3d7" stroke-width="2px"/><text class="caption" text-anchor="middle" pointer-events="none" x="0" y="5" font-size="10px" fill="#2A2C34" font-family="Helvetica Neue, Helvetica, Arial, sans-serif"> Nog</text></g><g class="node" aria-label="graph-node806" transform="translate(202.773581367754,-170.90733396006766)"><circle class="b-outline" cx="0" cy="0" r="25" fill="#57C7E3" stroke="#23b3d7" stroke-width="2px"/><text class="caption" text-anchor="middle" pointer-events="none" x="0" y="0" font-size="10px" fill="#2A2C34" font-family="Helvetica Neue, Helvetica, Arial, sans-serif"> Jake</text><text class="caption" text-anchor="middle" pointer-events="none" x="0" y="10" font-size="10px" fill="#2A2C34" font-family="Helvetica Neue, Helvetica, Arial, sans-serif"> Sisko</text></g><g class="node" aria-label="graph-node347" transform="translate(321.2643672102625,-58.29002701496689)"><circle class="b-outline" cx="0" cy="0" r="25" fill="#57C7E3" stroke="#23b3d7" stroke-width="2px"/><text class="caption" text-anchor="middle" pointer-events="none" x="0" y="5" font-size="10px" fill="#2A2C34" font-family="Helvetica Neue, Helvetica, Arial, sans-serif"> Broik</text></g><g class="node" aria-label="graph-node403" transform="translate(-60.471411483402505,-145.02282873331887)"><circle class="b-outline" cx="0" cy="0" r="25" fill="#57C7E3" stroke="#23b3d7" stroke-width="2px"/><text class="caption" text-anchor="middle" pointer-events="none" x="0" y="5" font-size="10px" fill="#2A2C34" font-family="Helvetica Neue, Helvetica, Arial, sans-serif"> Dukat</text></g><g class="node" aria-label="graph-node429" transform="translate(1.430403851017246,103.87539434146711)"><circle class="b-outline" cx="0" cy="0" r="25" fill="#57C7E3" stroke="#23b3d7" stroke-width="2px"/><text class="caption" text-anchor="middle" pointer-events="none" x="0" y="5" font-size="10px" fill="#2A2C34" font-family="Helvetica Neue, Helvetica, Arial, sans-serif"> Quark</text></g><g class="node" aria-label="graph-node436" transform="translate(259.4784017828257,14.485812200773092)"><circle class="b-outline" cx="0" cy="0" r="25" fill="#57C7E3" stroke="#23b3d7" stroke-width="2px"/><text class="caption" text-anchor="middle" pointer-events="none" x="0" y="5" font-size="10px" fill="#2A2C34" font-family="Helvetica Neue, Helvetica, Arial, sans-serif"> Odo</text></g><g class="node" aria-label="graph-node517" transform="translate(282.70986066467214,110.07872224178973)"><circle class="b-outline" cx="0" cy="0" r="25" fill="#57C7E3" stroke="#23b3d7" stroke-width="2px"/><text class="caption" text-anchor="middle" pointer-events="none" x="0" y="0" font-size="10px" fill="#2A2C34" font-family="Helvetica Neue, Helvetica, Arial, sans-serif"> Julian</text><text class="caption" text-anchor="middle" pointer-events="none" x="0" y="10" font-size="10px" fill="#2A2C34" font-family="Helvetica Neue, Helvetica, Arial, sans-serif"> Bashir</text></g><g class="node" aria-label="graph-node643" transform="translate(66.91386277924279,-112.92424872504046)"><circle class="b-outline" cx="0" cy="0" r="25" fill="#57C7E3" stroke="#23b3d7" stroke-width="2px"/><text class="caption" text-anchor="middle" pointer-events="none" x="0" y="0" font-size="10px" fill="#2A2C34" font-family="Helvetica Neue, Helvetica, Arial, sans-serif"> Miles</text><text class="caption" text-anchor="middle" pointer-events="none" x="0" y="10" font-size="10px" fill="#2A2C34" font-family="Helvetica Neue, Helvetica, Arial, sans-serif"> O'Brien</text></g><g class="node" aria-label="graph-node682" transform="translate(188.9887035187849,81.52331755640732)"><circle class="b-outline" cx="0" cy="0" r="25" fill="#57C7E3" stroke="#23b3d7" stroke-width="2px"/><text class="caption" text-anchor="middle" pointer-events="none" x="0" y="5" font-size="10px" fill="#2A2C34" font-family="Helvetica Neue, Helvetica, Arial, sans-serif"> Kira Nerys</text></g><g class="node" aria-label="graph-node695" transform="translate(121.27011933287054,-69.52861959561181)"><circle class="b-outline" cx="0" cy="0" r="25" fill="#57C7E3" stroke="#23b3d7" stroke-width="2px"/><text class="caption" text-anchor="middle" pointer-events="none" x="0" y="0" font-size="10px" fill="#2A2C34" font-family="Helvetica Neue, Helvetica, Arial, sans-serif"> Jadzia</text><text class="caption" text-anchor="middle" pointer-events="none" x="0" y="10" font-size="10px" fill="#2A2C34" font-family="Helvetica Neue, Helvetica, Arial, sans-serif"> Dax</text></g><g class="node" aria-label="graph-node733" transform="translate(183.9190594350253,-305.6099628829767)"><circle class="b-outline" cx="0" cy="0" r="25" fill="#57C7E3" stroke="#23b3d7" stroke-width="2px"/><text class="caption" text-anchor="middle" pointer-events="none" x="0" y="0" font-size="10px" fill="#2A2C34" font-family="Helvetica Neue, Helvetica, Arial, sans-serif"> Benjamin</text><text class="caption" text-anchor="middle" pointer-events="none" x="0" y="10" font-size="10px" fill="#2A2C34" font-family="Helvetica Neue, Helvetica, Arial, sans-serif"> Sisko</text></g><g class="node" aria-label="graph-node814" transform="translate(210.43002154005788,176.4739336969789)"><circle class="b-outline" cx="0" cy="0" r="25" fill="#57C7E3" stroke="#23b3d7" stroke-width="2px"/><text class="caption" text-anchor="middle" pointer-events="none" x="0" y="5" font-size="10px" fill="#2A2C34" font-family="Helvetica Neue, Helvetica, Arial, sans-serif"> Morn</text></g></g></svg>