<svg xmlns="http://www.w3.org/2000/svg" width="778.8303833007812" height="788.4552001953125" viewBox="-351.4887390136719 -384.6239318847656 778.8303833007812 788.4552001953125"><title>Neo4j Graph Visualization</title><desc>Created using Neo4j (http://www.neo4j.com/)</desc><g class="layer relationships"><g class="relationship" transform="translate(167.1468756742768 155.91681429648926) rotate(220.07226739949635)"><path class="b-outline" fill="#A5ABB6" stroke="none" d="M 25 0.5 L 89.57208363982572 0.5 L 89.57208363982572 -0.5 L 25 -0.5 Z M 123.13848988982572 0.5 L 187.71057352965144 0.5 L 187.71057352965144 3.5 L 194.71057352965144 0 L 187.71057352965144 -3.5 L 187.71057352965144 -0.5 L 123.13848988982572 -0.5 Z"/><text text-anchor="middle" pointer-events="none" font-size="8px" fill="#000000" x="106.35528676482572" y="3" transform="rotate(180 106.35528676482572 0)" font-family="Helvetica Neue, Helvetica, Arial, sans-serif">Part_Of</text></g><g class="relationship" transform="translate(137.7722906804341 -33.909541707730014) rotate(520.7752309805774)"><path class="b-outline" fill="#A5ABB6" stroke="none" d="M 25 0.5 L 53.191803115070684 0.5 L 53.191803115070684 -0.5 L 25 -0.5 Z M 86.75820936507068 0.5 L 114.95001248014137 0.5 L 114.95001248014137 3.5 L 121.95001248014137 0 L 114.95001248014137 -3.5 L 114.95001248014137 -0.5 L 86.75820936507068 -0.5 Z"/><text text-anchor="middle" pointer-events="none" font-size="8px" fill="#000000" x="69.97500624007068" y="3" transform="rotate(180 69.97500624007068 0)" font-family="Helvetica Neue, Helvetica, Arial, sans-serif">Part_Of</text></g><g class="relationship" transform="translate(36.87997248094141 96.78901635944887) rotate(245.29782539981494)"><path class="b-outline" fill="#A5ABB6" stroke="none" d="M 25 0.5 L 25.018011942684325 0.5 L 25.018011942684325 -0.5 L 25 -0.5 Z M 58.584418192684325 0.5 L 58.60243013536865 0.5 L 58.60243013536865 3.5 L 65.60243013536865 0 L 58.60243013536865 -3.5 L 58.60243013536865 -0.5 L 58.584418192684325 -0.5 Z"/><text text-anchor="middle" pointer-events="none" font-size="8px" fill="#000000" x="41.801215067684325" y="3" transform="rotate(180 41.801215067684325 0)" font-family="Helvetica Neue, Helvetica, Arial, sans-serif">Part_Of</text></g><g class="relationship" transform="translate(102.95924359491102 -125.61929236525307) rotate(486.57288770978795)"><path class="b-outline" fill="#A5ABB6" stroke="none" d="M 25 0.5 L 66.93929786196283 0.5 L 66.93929786196283 -0.5 L 25 -0.5 Z M 100.50570411196283 0.5 L 142.44500197392566 0.5 L 142.44500197392566 3.5 L 149.44500197392566 0 L 142.44500197392566 -3.5 L 142.44500197392566 -0.5 L 100.50570411196283 -0.5 Z"/><text text-anchor="middle" pointer-events="none" font-size="8px" fill="#000000" x="83.72250098696283" y="3" transform="rotate(180 83.72250098696283 0)" font-family="Helvetica Neue, Helvetica, Arial, sans-serif">Part_Of</text></g><g class="relationship" transform="translate(6.383881286115562 -142.47883365067187) rotate(452.687228742492)"><path class="b-outline" fill="#A5ABB6" stroke="none" d="M 25 0.5 L 58.28130948316475 0.5 L 58.28130948316475 -0.5 L 25 -0.5 Z M 91.84771573316475 0.5 L 125.1290252163295 0.5 L 125.1290252163295 3.5 L 132.1290252163295 0 L 125.1290252163295 -3.5 L 125.1290252163295 -0.5 L 91.84771573316475 -0.5 Z"/><text text-anchor="middle" pointer-events="none" font-size="8px" fill="#000000" x="75.06451260816475" y="3" transform="rotate(180 75.06451260816475 0)" font-family="Helvetica Neue, Helvetica, Arial, sans-serif">Part_Of</text></g><g class="relationship" transform="translate(-105.07692059616973 -167.55207565228176) rotate(420.23681561144275)"><path class="b-outline" fill="#A5ABB6" stroke="none" d="M 25 0.5 L 84.562268690538 0.5 L 84.562268690538 -0.5 L 25 -0.5 Z M 118.128674940538 0.5 L 177.690943631076 0.5 L 177.690943631076 3.5 L 184.690943631076 0 L 177.690943631076 -3.5 L 177.690943631076 -0.5 L 118.128674940538 -0.5 Z"/><text text-anchor="middle" pointer-events="none" font-size="8px" fill="#000000" x="101.345471815538" y="3" font-family="Helvetica Neue, Helvetica, Arial, sans-serif">Part_Of</text></g><g class="relationship" transform="translate(-134.62595777705732 -72.93884535977399) rotate(393.18880159846884)"><path class="b-outline" fill="#A5ABB6" stroke="none" d="M 25 0.5 L 59.56362094653642 0.5 L 59.56362094653642 -0.5 L 25 -0.5 Z M 93.13002719653642 0.5 L 127.69364814307283 0.5 L 127.69364814307283 3.5 L 134.69364814307283 0 L 127.69364814307283 -3.5 L 127.69364814307283 -0.5 L 93.13002719653642 -0.5 Z"/><text text-anchor="middle" pointer-events="none" font-size="8px" fill="#000000" x="76.34682407153642" y="3" font-family="Helvetica Neue, Helvetica, Arial, sans-serif">Part_Of</text></g><g class="relationship" transform="translate(-159.94090244617092 22.54209870233847) rotate(357.0956029633089)"><path class="b-outline" fill="#A5ABB6" stroke="none" d="M 25 0.5 L 59.29801044911443 0.5 L 59.29801044911443 -0.5 L 25 -0.5 Z M 92.86441669911443 0.5 L 127.16242714822886 0.5 L 127.16242714822886 3.5 L 134.16242714822886 0 L 127.16242714822886 -3.5 L 127.16242714822886 -0.5 L 92.86441669911443 -0.5 Z"/><text text-anchor="middle" pointer-events="none" font-size="8px" fill="#000000" x="76.08121357411443" y="3" font-family="Helvetica Neue, Helvetica, Arial, sans-serif">Part_Of</text></g><g class="relationship" transform="translate(-130.8447387111742 117.48018340937747) rotate(321.5795272883643)"><path class="b-outline" fill="#A5ABB6" stroke="none" d="M 25 0.5 L 62.59270314578458 0.5 L 62.59270314578458 -0.5 L 25 -0.5 Z M 96.15910939578458 0.5 L 133.75181254156917 0.5 L 133.75181254156917 3.5 L 140.75181254156917 0 L 133.75181254156917 -3.5 L 133.75181254156917 -0.5 L 96.15910939578458 -0.5 Z"/><text text-anchor="middle" pointer-events="none" font-size="8px" fill="#000000" x="79.37590627078458" y="3" font-family="Helvetica Neue, Helvetica, Arial, sans-serif">Part_Of</text></g><g class="relationship" transform="translate(-35.03721820468608 167.9693698454481) rotate(282.50923070745756)"><path class="b-outline" fill="#A5ABB6" stroke="none" d="M 25 0.5 L 58.328943411002385 0.5 L 58.328943411002385 -0.5 L 25 -0.5 Z M 91.89534966100238 0.5 L 125.22429307200477 0.5 L 125.22429307200477 3.5 L 132.22429307200477 0 L 125.22429307200477 -3.5 L 125.22429307200477 -0.5 L 91.89534966100238 -0.5 Z"/><text text-anchor="middle" pointer-events="none" font-size="8px" fill="#000000" x="75.11214653600238" y="3" font-family="Helvetica Neue, Helvetica, Arial, sans-serif">Part_Of</text></g><g class="relationship" transform="translate(-35.03721820468608 167.9693698454481) rotate(478.4674896224214)"><path class="b-outline" fill="#A5ABB6" stroke="none" d="M 25 0.5 L 25.02397833346577 0.5 L 25.02397833346577 -0.5 L 25 -0.5 Z M 62.15679083346577 0.5 L 62.18076916693154 0.5 L 62.18076916693154 3.5 L 69.18076916693154 0 L 62.18076916693154 -3.5 L 62.18076916693154 -0.5 L 62.15679083346577 -0.5 Z"/><text text-anchor="middle" pointer-events="none" font-size="8px" fill="#000000" x="43.59038458346577" y="3" transform="rotate(180 43.59038458346577 0)" font-family="Helvetica Neue, Helvetica, Arial, sans-serif">Appea…</text></g><g class="relationship" transform="translate(36.87997248094141 96.78901635944887) rotate(487.18515710615713)"><path class="b-outline" fill="#A5ABB6" stroke="none" d="M 25 0.5 L 69.67470249809936 0.5 L 69.67470249809936 -0.5 L 25 -0.5 Z M 116.59267124809936 0.5 L 161.26737374619873 0.5 L 161.26737374619873 3.5 L 168.26737374619873 0 L 161.26737374619873 -3.5 L 161.26737374619873 -0.5 L 116.59267124809936 -0.5 Z"/><text text-anchor="middle" pointer-events="none" font-size="8px" fill="#000000" x="93.13368687309936" y="3" transform="rotate(180 93.13368687309936 0)" font-family="Helvetica Neue, Helvetica, Arial, sans-serif">Appears_In</text></g><g class="relationship" transform="translate(167.1468756742768 155.91681429648926) rotate(524.8227230210459)"><path class="b-outline" fill="#A5ABB6" stroke="none" d="M 25 0.5 L 30.658303787861513 0.5 L 30.658303787861513 -0.5 L 25 -0.5 Z M 77.57627253786151 0.5 L 83.23457632572303 0.5 L 83.23457632572303 3.5 L 90.23457632572303 0 L 83.23457632572303 -3.5 L 83.23457632572303 -0.5 L 77.57627253786151 -0.5 Z"/><text text-anchor="middle" pointer-events="none" font-size="8px" fill="#000000" x="54.11728816286151" y="3" transform="rotate(180 54.11728816286151 0)" font-family="Helvetica Neue, Helvetica, Arial, sans-serif">Appears_In</text></g><g class="relationship" transform="translate(167.1468756742768 155.91681429648926) rotate(417.8774031267991)"><path class="b-outline" fill="#A5ABB6" stroke="none" d="M 25 0.5 L 44.01842830878135 0.5 L 44.01842830878135 -0.5 L 25 -0.5 Z M 90.93639705878135 0.5 L 109.9548253675627 0.5 L 109.9548253675627 3.5 L 116.9548253675627 0 L 109.9548253675627 -3.5 L 109.9548253675627 -0.5 L 90.93639705878135 -0.5 Z"/><text text-anchor="middle" pointer-events="none" font-size="8px" fill="#000000" x="67.47741268378135" y="3" font-family="Helvetica Neue, Helvetica, Arial, sans-serif">Appears_In</text></g><g class="relationship" transform="translate(167.1468756742768 155.91681429648926) rotate(399.67050257927497)"><path class="b-outline" fill="#A5ABB6" stroke="none" d="M 25 0.5 L 84.72948840332076 0.5 L 84.72948840332076 -0.5 L 25 -0.5 Z M 131.64745715332077 0.5 L 191.37694555664152 0.5 L 191.37694555664152 3.5 L 198.37694555664152 0 L 191.37694555664152 -3.5 L 191.37694555664152 -0.5 L 131.64745715332077 -0.5 Z"/><text text-anchor="middle" pointer-events="none" font-size="8px" fill="#000000" x="108.18847277832076" y="3" font-family="Helvetica Neue, Helvetica, Arial, sans-serif">Appears_In</text></g><g class="relationship" transform="translate(167.1468756742768 155.91681429648926) rotate(468.8014199659768)"><path class="b-outline" fill="#A5ABB6" stroke="none" d="M 25 0.5 L 26.048461568858883 0.5 L 26.048461568858883 -0.5 L 25 -0.5 Z M 45.38439906885888 0.5 L 46.432860637717766 0.5 L 46.432860637717766 3.5 L 53.432860637717766 0 L 46.432860637717766 -3.5 L 46.432860637717766 -0.5 L 45.38439906885888 -0.5 Z"/><text text-anchor="middle" pointer-events="none" font-size="8px" fill="#000000" x="35.71643031885888" y="3" transform="rotate(180 35.71643031885888 0)" font-family="Helvetica Neue, Helvetica, Arial, sans-serif">A…</text></g><g class="relationship" transform="translate(167.1468756742768 155.91681429648926) rotate(378.7403518655848)"><path class="b-outline" fill="#A5ABB6" stroke="none" d="M 25 0.5 L 48.635163475970174 0.5 L 48.635163475970174 -0.5 L 25 -0.5 Z M 95.55313222597017 0.5 L 119.18829570194035 0.5 L 119.18829570194035 3.5 L 126.18829570194035 0 L 119.18829570194035 -3.5 L 119.18829570194035 -0.5 L 95.55313222597017 -0.5 Z"/><text text-anchor="middle" pointer-events="none" font-size="8px" fill="#000000" x="72.09414785097017" y="3" font-family="Helvetica Neue, Helvetica, Arial, sans-serif">Appears_In</text></g><g class="relationship" transform="translate(167.1468756742768 155.91681429648926) rotate(335.7974724891915)"><path class="b-outline" fill="#A5ABB6" stroke="none" d="M 25 0.5 L 70.56934597825651 0.5 L 70.56934597825651 -0.5 L 25 -0.5 Z M 117.48731472825651 0.5 L 163.05666070651301 0.5 L 163.05666070651301 3.5 L 170.05666070651301 0 L 163.05666070651301 -3.5 L 163.05666070651301 -0.5 L 117.48731472825651 -0.5 Z"/><text text-anchor="middle" pointer-events="none" font-size="8px" fill="#000000" x="94.02833035325651" y="3" font-family="Helvetica Neue, Helvetica, Arial, sans-serif">Appears_In</text></g><g class="relationship" transform="translate(167.1468756742768 155.91681429648926) rotate(360.90544676528094)"><path class="b-outline" fill="#A5ABB6" stroke="none" d="M 25 0.5 L 88.65278127624016 0.5 L 88.65278127624016 -0.5 L 25 -0.5 Z M 135.57075002624015 0.5 L 199.22353130248032 0.5 L 199.22353130248032 3.5 L 206.22353130248032 0 L 199.22353130248032 -3.5 L 199.22353130248032 -0.5 L 135.57075002624015 -0.5 Z"/><text text-anchor="middle" pointer-events="none" font-size="8px" fill="#000000" x="112.11176565124016" y="3" font-family="Helvetica Neue, Helvetica, Arial, sans-serif">Appears_In</text></g><g class="relationship" transform="translate(167.1468756742768 155.91681429648926) rotate(490.0341150570192)"><path class="b-outline" fill="#A5ABB6" stroke="none" d="M 25 0.5 L 69.50186841215657 0.5 L 69.50186841215657 -0.5 L 25 -0.5 Z M 90.31827466215657 0.5 L 134.82014307431314 0.5 L 134.82014307431314 3.5 L 141.82014307431314 0 L 134.82014307431314 -3.5 L 134.82014307431314 -0.5 L 90.31827466215657 -0.5 Z"/><text text-anchor="middle" pointer-events="none" font-size="8px" fill="#000000" x="79.91007153715657" y="3" transform="rotate(180 79.91007153715657 0)" font-family="Helvetica Neue, Helvetica, Arial, sans-serif">Title</text></g><g class="relationship" transform="translate(167.1468756742768 155.91681429648926) rotate(454.95170242999353)"><path class="b-outline" fill="#A5ABB6" stroke="none" d="M 25 0.5 L 60.71120093517152 0.5 L 60.71120093517152 -0.5 L 25 -0.5 Z M 94.27760718517152 0.5 L 129.98880812034304 0.5 L 129.98880812034304 3.5 L 136.98880812034304 0 L 129.98880812034304 -3.5 L 129.98880812034304 -0.5 L 94.27760718517152 -0.5 Z"/><text text-anchor="middle" pointer-events="none" font-size="8px" fill="#000000" x="77.49440406017152" y="3" transform="rotate(180 77.49440406017152 0)" font-family="Helvetica Neue, Helvetica, Arial, sans-serif">Part_Of</text></g><g class="relationship" transform="translate(36.87997248094141 96.78901635944887) rotate(411.79134968810564)"><path class="b-outline" fill="#A5ABB6" stroke="none" d="M 25 0.5 L 57.911067323571785 0.5 L 57.911067323571785 -0.5 L 25 -0.5 Z M 104.82903607357179 0.5 L 137.74010339714357 0.5 L 137.74010339714357 3.5 L 144.74010339714357 0 L 137.74010339714357 -3.5 L 137.74010339714357 -0.5 L 104.82903607357179 -0.5 Z"/><text text-anchor="middle" pointer-events="none" font-size="8px" fill="#000000" x="81.37005169857179" y="3" font-family="Helvetica Neue, Helvetica, Arial, sans-serif">Appears_In</text></g><g class="relationship" transform="translate(398.341535195818 159.5706939753716) rotate(473.09672843459913)"><path class="b-outline" fill="#A5ABB6" stroke="none" d="M 25 0.5 L 39.24245093336842 0.5 L 39.24245093336842 -0.5 L 25 -0.5 Z M 104.80885718336842 0.5 L 119.05130811673683 0.5 L 119.05130811673683 3.5 L 126.05130811673683 0 L 119.05130811673683 -3.5 L 119.05130811673683 -0.5 L 104.80885718336842 -0.5 Z"/><text text-anchor="middle" pointer-events="none" font-size="8px" fill="#000000" x="72.02565405836842" y="3" transform="rotate(180 72.02565405836842 0)" font-family="Helvetica Neue, Helvetica, Arial, sans-serif">NEXT_MISSION</text></g><g class="relationship" transform="translate(237.11512919427483 374.83126577219093) rotate(214.42235608600856)"><path class="b-outline" fill="#A5ABB6" stroke="none" d="M 25 0.5 L 30.60247238160271 0.5 L 30.60247238160271 -0.5 L 25 -0.5 Z M 64.16887863160271 0.5 L 69.77135101320542 0.5 L 69.77135101320542 3.5 L 76.77135101320542 0 L 69.77135101320542 -3.5 L 69.77135101320542 -0.5 L 64.16887863160271 -0.5 Z"/><text text-anchor="middle" pointer-events="none" font-size="8px" fill="#000000" x="47.38567550660271" y="3" transform="rotate(180 47.38567550660271 0)" font-family="Helvetica Neue, Helvetica, Arial, sans-serif">Part_Of</text></g><g class="relationship" transform="translate(137.7722906804341 -33.909541707730014) rotate(341.116392675969)"><path class="b-outline" fill="#A5ABB6" stroke="none" d="M 25 0.5 L 74.53402084901641 0.5 L 74.53402084901641 -0.5 L 25 -0.5 Z M 121.45198959901641 0.5 L 170.98601044803283 0.5 L 170.98601044803283 3.5 L 177.98601044803283 0 L 170.98601044803283 -3.5 L 170.98601044803283 -0.5 L 121.45198959901641 -0.5 Z"/><text text-anchor="middle" pointer-events="none" font-size="8px" fill="#000000" x="97.99300522401641" y="3" font-family="Helvetica Neue, Helvetica, Arial, sans-serif">Appears_In</text></g><g class="relationship" transform="translate(188.34311658149915 -174.16625705375816) rotate(469.82722676443836)"><path class="b-outline" fill="#A5ABB6" stroke="none" d="M 24.018736134675446,-6.953439040707552 L 24.277555179777966,-5.987513214418485 A 189.05846954568358 189.05846954568358 0 0 1 58.9422017351307,-11.890415762498748 L 58.866736795446755,-12.887564218285803 A 190.05846954568358 190.05846954568358 0 0 0 24.018736134675446,-6.953439040707552 Z M 83.14294186259193,-13.169759578921827 L 83.09067660890341,-12.171126341313084 A 189.05846954568358 189.05846954568358 0 0 1 117.88317265028428,-7.075618661978548 L 117.17428584365507,-4.160575009580347 L 124.80308897365161,-5.907390055243424 L 118.82835505912323,-10.962343531842816 L 118.11946825249402,-8.047299879444616 A 190.05846954568358 190.05846954568358 0 0 0 83.14294186259193,-13.169759578921827"/><text text-anchor="middle" pointer-events="none" font-size="8px" fill="#000000" x="71.0061405991089" y="-9.916718529049746" transform="rotate(180 71.0061405991089 -12.916718529049746)" font-family="Helvetica Neue, Helvetica, Arial, sans-serif">Child</text></g><g class="relationship" transform="translate(137.7722906804341 -33.909541707730014) rotate(289.82722676443836)"><path class="b-outline" fill="#A5ABB6" stroke="none" d="M 24.018736134675446,-6.953439040707552 L 24.277555179777966,-5.987513214418485 A 189.05846954568358 189.05846954568358 0 0 1 56.51154833099224,-11.690686615604676 L 56.42322676864558,-12.686778630242202 A 190.05846954568358 190.05846954568358 0 0 0 24.018736134675446,-6.953439040707552 Z M 85.59045899377912,-13.025829054052679 L 85.52531603389295,-12.027953112476155 A 189.05846954568358 189.05846954568358 0 0 1 117.88317265028428,-7.075618661978548 L 117.17428584365507,-4.160575009580347 L 124.80308897365161,-5.907390055243424 L 118.82835505912323,-10.962343531842816 L 118.11946825249402,-8.047299879444616 A 190.05846954568358 190.05846954568358 0 0 0 85.59045899377912,-13.025829054052679"/><text text-anchor="middle" pointer-events="none" font-size="8px" fill="#000000" x="71.0061405991089" y="-9.916718529049746" font-family="Helvetica Neue, Helvetica, Arial, sans-serif">Father</text></g><g class="relationship" transform="translate(102.95924359491102 -125.61929236525307) rotate(418.01787743648663)"><path class="b-outline" fill="#A5ABB6" stroke="none" d="M 25 0.5 L 118.1331924143727 0.5 L 118.1331924143727 -0.5 L 25 -0.5 Z M 165.0511611643727 0.5 L 258.1843535787454 0.5 L 258.1843535787454 3.5 L 265.1843535787454 0 L 258.1843535787454 -3.5 L 258.1843535787454 -0.5 L 165.0511611643727 -0.5 Z"/><text text-anchor="middle" pointer-events="none" font-size="8px" fill="#000000" x="141.5921767893727" y="3" font-family="Helvetica Neue, Helvetica, Arial, sans-serif">Appears_In</text></g><g class="relationship" transform="translate(237.11512919427483 374.83126577219093) rotate(274.39402795810577)"><path class="b-outline" fill="#A5ABB6" stroke="none" d="M 25 0.5 L 100.57201238255118 0.5 L 100.57201238255118 -0.5 L 25 -0.5 Z M 147.48998113255118 0.5 L 223.06199351510236 0.5 L 223.06199351510236 3.5 L 230.06199351510236 0 L 223.06199351510236 -3.5 L 223.06199351510236 -0.5 L 147.48998113255118 -0.5 Z"/><text text-anchor="middle" pointer-events="none" font-size="8px" fill="#000000" x="124.03099675755118" y="3" font-family="Helvetica Neue, Helvetica, Arial, sans-serif">Appears_In</text></g><g class="relationship" transform="translate(6.383881286115562 -142.47883365067187) rotate(230.34900190043402)"><path class="b-outline" fill="#A5ABB6" stroke="none" d="M 25 0.5 L 79.28332314347038 0.5 L 79.28332314347038 -0.5 L 25 -0.5 Z M 126.20129189347038 0.5 L 180.48461503694077 0.5 L 180.48461503694077 3.5 L 187.48461503694077 0 L 180.48461503694077 -3.5 L 180.48461503694077 -0.5 L 126.20129189347038 -0.5 Z"/><text text-anchor="middle" pointer-events="none" font-size="8px" fill="#000000" x="102.74230751847038" y="3" transform="rotate(180 102.74230751847038 0)" font-family="Helvetica Neue, Helvetica, Arial, sans-serif">Appears_In</text></g><g class="relationship" transform="translate(241.75626376737011 -247.6154412373145) rotate(515.9305440811103)"><path class="b-outline" fill="#A5ABB6" stroke="none" d="M 24.018736134675446,-6.953439040707552 L 24.277555179777966,-5.987513214418485 A 401.21384429651704 401.21384429651704 0 0 1 107.95075747948545,-19.151296499984085 L 107.90048857164555,-20.15003221923348 A 402.21384429651704 402.21384429651704 0 0 0 24.018736134675446,-6.953439040707552 Z M 142.8344643967872,-20.38927447153077 L 142.7978790694472,-19.389943938712236 A 401.21384429651704 401.21384429651704 0 0 1 226.64352662802725,-7.373398721409011 L 225.9068308076854,-4.465258547983594 L 233.5519696694102,-6.139131836182206 L 227.6257877218164,-11.250918952642898 L 226.88909190147456,-8.342778779217483 A 402.21384429651704 402.21384429651704 0 0 0 142.8344643967872,-20.38927447153077"/><text text-anchor="middle" pointer-events="none" font-size="8px" fill="#000000" x="125.36830192269458" y="-17.149123432435715" transform="rotate(180 125.36830192269458 -20.149123432435715)" font-family="Helvetica Neue, Helvetica, Arial, sans-serif">Relative</text></g><g class="relationship" transform="translate(6.383881286115562 -142.47883365067187) rotate(335.93054408111027)"><path class="b-outline" fill="#A5ABB6" stroke="none" d="M 24.018736134675446,-6.953439040707552 L 24.277555179777966,-5.987513214418485 A 401.21384429651704 401.21384429651704 0 0 1 107.95075747948545,-19.151296499984085 L 107.90048857164555,-20.15003221923348 A 402.21384429651704 402.21384429651704 0 0 0 24.018736134675446,-6.953439040707552 Z M 142.8344643967872,-20.38927447153077 L 142.7978790694472,-19.389943938712236 A 401.21384429651704 401.21384429651704 0 0 1 226.64352662802725,-7.373398721409011 L 225.9068308076854,-4.465258547983594 L 233.5519696694102,-6.139131836182206 L 227.6257877218164,-11.250918952642898 L 226.88909190147456,-8.342778779217483 A 402.21384429651704 402.21384429651704 0 0 0 142.8344643967872,-20.38927447153077"/><text text-anchor="middle" pointer-events="none" font-size="8px" fill="#000000" x="125.36830192269458" y="-17.149123432435715" font-family="Helvetica Neue, Helvetica, Arial, sans-serif">Relative</text></g><g class="relationship" transform="translate(6.383881286115562 -142.47883365067187) rotate(256.7929865245293)"><path class="b-outline" fill="#A5ABB6" stroke="none" d="M 25 0.5 L 95.5596664014219 0.5 L 95.5596664014219 -0.5 L 25 -0.5 Z M 116.3760726514219 0.5 L 186.9357390528438 0.5 L 186.9357390528438 3.5 L 193.9357390528438 0 L 186.9357390528438 -3.5 L 186.9357390528438 -0.5 L 116.3760726514219 -0.5 Z"/><text text-anchor="middle" pointer-events="none" font-size="8px" fill="#000000" x="105.9678695264219" y="3" transform="rotate(180 105.9678695264219 0)" font-family="Helvetica Neue, Helvetica, Arial, sans-serif">Title</text></g><g class="relationship" transform="translate(6.383881286115562 -142.47883365067187) rotate(288.7137382322942)"><path class="b-outline" fill="#A5ABB6" stroke="none" d="M 24.018736134675446,-6.953439040707552 L 24.277555179777966,-5.987513214418485 A 255.5463524925969 255.5463524925969 0 0 1 73.01326360129946,-14.101667102909943 L 72.94515637010528,-15.09934510961304 A 256.5463524925969 256.5463524925969 0 0 0 24.018736134675446,-6.953439040707552 Z M 103.00080809444415,-15.386275305758375 L 102.95176046675098,-14.387478864926862 A 255.5463524925969 255.5463524925969 0 0 1 151.8334978699236,-7.205242644852024 L 151.11250523012032,-4.293169566553767 L 158.74850049258677,-6.008271998360733 L 152.79482138966134,-11.0880067492497 L 152.07382874985805,-8.175933670951444 A 256.5463524925969 256.5463524925969 0 0 0 103.00080809444415,-15.386275305758375"/><text text-anchor="middle" pointer-events="none" font-size="8px" fill="#000000" x="87.97354961892347" y="-12.18337702241297" font-family="Helvetica Neue, Helvetica, Arial, sans-serif">Sibling</text></g><g class="relationship" transform="translate(65.10268138401446 -315.81918334757944) rotate(468.7137382322942)"><path class="b-outline" fill="#A5ABB6" stroke="none" d="M 24.018736134675446,-6.953439040707552 L 24.277555179777966,-5.987513214418485 A 255.5463524925969 255.5463524925969 0 0 1 73.01326360129946,-14.101667102909943 L 72.94515637010528,-15.09934510961304 A 256.5463524925969 256.5463524925969 0 0 0 24.018736134675446,-6.953439040707552 Z M 103.00080809444415,-15.386275305758375 L 102.95176046675098,-14.387478864926862 A 255.5463524925969 255.5463524925969 0 0 1 151.8334978699236,-7.205242644852024 L 151.11250523012032,-4.293169566553767 L 158.74850049258677,-6.008271998360733 L 152.79482138966134,-11.0880067492497 L 152.07382874985805,-8.175933670951444 A 256.5463524925969 256.5463524925969 0 0 0 103.00080809444415,-15.386275305758375"/><text text-anchor="middle" pointer-events="none" font-size="8px" fill="#000000" x="87.97354961892347" y="-12.18337702241297" transform="rotate(180 87.97354961892347 -15.18337702241297)" font-family="Helvetica Neue, Helvetica, Arial, sans-serif">Sibling</text></g><g class="relationship" transform="translate(-105.07692059616973 -167.55207565228176) rotate(260.11983115559036)"><path class="b-outline" fill="#A5ABB6" stroke="none" d="M 25 0.5 L 43.34792692532707 0.5 L 43.34792692532707 -0.5 L 25 -0.5 Z M 90.26589567532707 0.5 L 108.61382260065415 0.5 L 108.61382260065415 3.5 L 115.61382260065415 0 L 108.61382260065415 -3.5 L 108.61382260065415 -0.5 L 90.26589567532707 -0.5 Z"/><text text-anchor="middle" pointer-events="none" font-size="8px" fill="#000000" x="66.80691130032707" y="3" transform="rotate(180 66.80691130032707 0)" font-family="Helvetica Neue, Helvetica, Arial, sans-serif">Appears_In</text></g><g class="relationship" transform="translate(237.11512919427483 374.83126577219093) rotate(270.4272052408245)"><path class="b-outline" fill="#A5ABB6" stroke="none" d="M 25 0.5 L 290.2808329048357 0.5 L 290.2808329048357 -0.5 L 25 -0.5 Z M 325.1831766548357 0.5 L 590.4640095596714 0.5 L 590.4640095596714 3.5 L 597.4640095596714 0 L 590.4640095596714 -3.5 L 590.4640095596714 -0.5 L 325.1831766548357 -0.5 Z"/><text text-anchor="middle" pointer-events="none" font-size="8px" fill="#000000" x="307.7320047798357" y="3" font-family="Helvetica Neue, Helvetica, Arial, sans-serif">Relative</text></g><g class="relationship" transform="translate(241.75626376737011 -247.6154412373145) rotate(201.11095202954732)"><path class="b-outline" fill="#A5ABB6" stroke="none" d="M 24.018736134675446,-6.953439040707552 L 24.277555179777966,-5.987513214418485 A 267.9488661125277 267.9488661125277 0 0 1 79.0671749513493,-14.721735688574654 L 79.01283379998253,-15.720258116599268 A 268.9488661125277 268.9488661125277 0 0 0 24.018736134675446,-6.953439040707552 Z M 103.27915793380197,-15.94442274477808 L 103.24327255071789,-14.945066832562134 A 267.9488661125277 267.9488661125277 0 0 1 158.1848963985165,-7.224506884707385 L 157.46210470517812,-4.312879819295154 L 165.09915816670144,-6.023264111153201 L 159.148618656301,-11.106676305257025 L 158.42582696296262,-8.195049239844794 A 268.9488661125277 268.9488661125277 0 0 0 103.27915793380197,-15.94442274477808"/><text text-anchor="middle" pointer-events="none" font-size="8px" fill="#000000" x="91.1480849163163" y="-12.60619614170281" transform="rotate(180 91.1480849163163 -15.60619614170281)" font-family="Helvetica Neue, Helvetica, Arial, sans-serif">Child</text></g><g class="relationship" transform="translate(65.10268138401446 -315.81918334757944) rotate(200.10553013460304)"><path class="b-outline" fill="#A5ABB6" stroke="none" d="M 25 0.5 L 43.98955254053821 0.5 L 43.98955254053821 -0.5 L 25 -0.5 Z M 64.80595879053821 0.5 L 83.79551133107643 0.5 L 83.79551133107643 3.5 L 90.79551133107643 0 L 83.79551133107643 -3.5 L 83.79551133107643 -0.5 L 64.80595879053821 -0.5 Z"/><text text-anchor="middle" pointer-events="none" font-size="8px" fill="#000000" x="54.39775566553821" y="3" transform="rotate(180 54.39775566553821 0)" font-family="Helvetica Neue, Helvetica, Arial, sans-serif">Title</text></g><g class="relationship" transform="translate(65.10268138401446 -315.81918334757944) rotate(381.1109520295473)"><path class="b-outline" fill="#A5ABB6" stroke="none" d="M 24.018736134675446,-6.953439040707552 L 24.277555179777966,-5.987513214418485 A 267.9488661125277 267.9488661125277 0 0 1 76.63066115083865,-14.578003940439203 L 76.56722679510098,-15.575989953623832 A 268.9488661125277 268.9488661125277 0 0 0 24.018736134675446,-6.953439040707552 Z M 105.72701276342133,-15.845358834683736 L 105.68202581815184,-14.846371259808393 A 267.9488661125277 267.9488661125277 0 0 1 158.1848963985165,-7.224506884707385 L 157.46210470517812,-4.312879819295154 L 165.09915816670144,-6.023264111153201 L 159.148618656301,-11.106676305257025 L 158.42582696296262,-8.195049239844794 A 268.9488661125277 268.9488661125277 0 0 0 105.72701276342133,-15.845358834683736"/><text text-anchor="middle" pointer-events="none" font-size="8px" fill="#000000" x="91.1480849163163" y="-12.60619614170281" font-family="Helvetica Neue, Helvetica, Arial, sans-serif">Father</text></g><g class="relationship" transform="translate(65.10268138401446 -315.81918334757944) rotate(537.1307128639156)"><path class="b-outline" fill="#A5ABB6" stroke="none" d="M 25 0.5 L 70.31659883116397 0.5 L 70.31659883116397 -0.5 L 25 -0.5 Z M 117.23456758116397 0.5 L 162.55116641232794 0.5 L 162.55116641232794 3.5 L 169.55116641232794 0 L 162.55116641232794 -3.5 L 162.55116641232794 -0.5 L 117.23456758116397 -0.5 Z"/><text text-anchor="middle" pointer-events="none" font-size="8px" fill="#000000" x="93.77558320616397" y="3" transform="rotate(180 93.77558320616397 0)" font-family="Helvetica Neue, Helvetica, Arial, sans-serif">Appears_In</text></g><g class="relationship" transform="translate(-255.60232523016396 -80.58284121915361) rotate(329.98191776251736)"><path class="b-outline" fill="#A5ABB6" stroke="none" d="M 25 0.5 L 71.3064907259667 0.5 L 71.3064907259667 -0.5 L 25 -0.5 Z M 95.5369594759667 0.5 L 141.8434502019334 0.5 L 141.8434502019334 3.5 L 148.8434502019334 0 L 141.8434502019334 -3.5 L 141.8434502019334 -0.5 L 95.5369594759667 -0.5 Z"/><text text-anchor="middle" pointer-events="none" font-size="8px" fill="#000000" x="83.4217251009667" y="3" font-family="Helvetica Neue, Helvetica, Arial, sans-serif">Child</text></g><g class="relationship" transform="translate(-134.62595777705732 -72.93884535977399) rotate(365.96992615798825)"><path class="b-outline" fill="#A5ABB6" stroke="none" d="M 25 0.5 L 62.26898683396766 0.5 L 62.26898683396766 -0.5 L 25 -0.5 Z M 109.18695558396766 0.5 L 146.45594241793532 0.5 L 146.45594241793532 3.5 L 153.45594241793532 0 L 146.45594241793532 -3.5 L 146.45594241793532 -0.5 L 109.18695558396766 -0.5 Z"/><text text-anchor="middle" pointer-events="none" font-size="8px" fill="#000000" x="85.72797120896766" y="3" font-family="Helvetica Neue, Helvetica, Arial, sans-serif">Appears_In</text></g><g class="relationship" transform="translate(65.10268138401446 -315.81918334757944) rotate(454.8623910118853)"><path class="b-outline" fill="#A5ABB6" stroke="none" d="M 25 0.5 L 104.23361052613495 0.5 L 104.23361052613495 -0.5 L 25 -0.5 Z M 151.15157927613495 0.5 L 230.3851898022699 0.5 L 230.3851898022699 3.5 L 237.3851898022699 0 L 230.3851898022699 -3.5 L 230.3851898022699 -0.5 L 151.15157927613495 -0.5 Z"/><text text-anchor="middle" pointer-events="none" font-size="8px" fill="#000000" x="127.69259490113495" y="3" transform="rotate(180 127.69259490113495 0)" font-family="Helvetica Neue, Helvetica, Arial, sans-serif">Appears_In</text></g><g class="relationship" transform="translate(188.34311658149915 -174.16625705375816) rotate(500.5322048445645)"><path class="b-outline" fill="#A5ABB6" stroke="none" d="M 25 0.5 L 67.26663729583309 0.5 L 67.26663729583309 -0.5 L 25 -0.5 Z M 114.18460604583309 0.5 L 156.45124334166618 0.5 L 156.45124334166618 3.5 L 163.45124334166618 0 L 156.45124334166618 -3.5 L 156.45124334166618 -0.5 L 114.18460604583309 -0.5 Z"/><text text-anchor="middle" pointer-events="none" font-size="8px" fill="#000000" x="90.72562167083309" y="3" transform="rotate(180 90.72562167083309 0)" font-family="Helvetica Neue, Helvetica, Arial, sans-serif">Appears_In</text></g><g class="relationship" transform="translate(237.11512919427483 374.83126577219093) rotate(245.64929708185275)"><path class="b-outline" fill="#A5ABB6" stroke="none" d="M 25 0.5 L 208.60154531607964 0.5 L 208.60154531607964 -0.5 L 25 -0.5 Z M 255.51951406607964 0.5 L 439.1210593821593 0.5 L 439.1210593821593 3.5 L 446.1210593821593 0 L 439.1210593821593 -3.5 L 439.1210593821593 -0.5 L 255.51951406607964 -0.5 Z"/><text text-anchor="middle" pointer-events="none" font-size="8px" fill="#000000" x="232.06052969107964" y="3" transform="rotate(180 232.06052969107964 0)" font-family="Helvetica Neue, Helvetica, Arial, sans-serif">Appears_In</text></g><g class="relationship" transform="translate(241.75626376737011 -247.6154412373145) rotate(495.8265010004262)"><path class="b-outline" fill="#A5ABB6" stroke="none" d="M 25 0.5 L 111.69478324176299 0.5 L 111.69478324176299 -0.5 L 25 -0.5 Z M 158.612751991763 0.5 L 245.30753523352598 0.5 L 245.30753523352598 3.5 L 252.30753523352598 0 L 245.30753523352598 -3.5 L 245.30753523352598 -0.5 L 158.612751991763 -0.5 Z"/><text text-anchor="middle" pointer-events="none" font-size="8px" fill="#000000" x="135.153767616763" y="3" transform="rotate(180 135.153767616763 0)" font-family="Helvetica Neue, Helvetica, Arial, sans-serif">Appears_In</text></g><g class="relationship" transform="translate(-130.8447387111742 117.48018340937747) rotate(535.5147576131188)"><path class="b-outline" fill="#A5ABB6" stroke="none" d="M 25 0.5 L 58.85398059762959 0.5 L 58.85398059762959 -0.5 L 25 -0.5 Z M 105.77194934762959 0.5 L 139.62592994525917 0.5 L 139.62592994525917 3.5 L 146.62592994525917 0 L 139.62592994525917 -3.5 L 139.62592994525917 -0.5 L 105.77194934762959 -0.5 Z"/><text text-anchor="middle" pointer-events="none" font-size="8px" fill="#000000" x="82.31296497262959" y="3" transform="rotate(180 82.31296497262959 0)" font-family="Helvetica Neue, Helvetica, Arial, sans-serif">Appears_In</text></g><g class="relationship" transform="translate(-130.8447387111742 117.48018340937747) rotate(204.6012411513491)"><path class="b-outline" fill="#A5ABB6" stroke="none" d="M 25 0.5 L 91.48020565966294 0.5 L 91.48020565966294 -0.5 L 25 -0.5 Z M 112.29661190966294 0.5 L 178.77681756932589 0.5 L 178.77681756932589 3.5 L 185.77681756932589 0 L 178.77681756932589 -3.5 L 178.77681756932589 -0.5 L 112.29661190966294 -0.5 Z"/><text text-anchor="middle" pointer-events="none" font-size="8px" fill="#000000" x="101.88840878466294" y="3" transform="rotate(180 101.88840878466294 0)" font-family="Helvetica Neue, Helvetica, Arial, sans-serif">Title</text></g><g class="relationship" transform="translate(-159.94090244617092 22.54209870233847) rotate(502.6537026778294)"><path class="b-outline" fill="#A5ABB6" stroke="none" d="M 25 0.5 L 62.35365736441784 0.5 L 62.35365736441784 -0.5 L 25 -0.5 Z M 109.27162611441784 0.5 L 146.62528347883568 0.5 L 146.62528347883568 3.5 L 153.62528347883568 0 L 146.62528347883568 -3.5 L 146.62528347883568 -0.5 L 109.27162611441784 -0.5 Z"/><text text-anchor="middle" pointer-events="none" font-size="8px" fill="#000000" x="85.81264173941784" y="3" transform="rotate(180 85.81264173941784 0)" font-family="Helvetica Neue, Helvetica, Arial, sans-serif">Appears_In</text></g><g class="relationship" transform="translate(-159.94090244617092 22.54209870233847) rotate(537.466718736548)"><path class="b-outline" fill="#A5ABB6" stroke="none" d="M 25 0.5 L 67.44521678163473 0.5 L 67.44521678163473 -0.5 L 25 -0.5 Z M 88.26162303163473 0.5 L 130.70683981326945 0.5 L 130.70683981326945 3.5 L 137.70683981326945 0 L 130.70683981326945 -3.5 L 130.70683981326945 -0.5 L 88.26162303163473 -0.5 Z"/><text text-anchor="middle" pointer-events="none" font-size="8px" fill="#000000" x="77.85341990663473" y="3" transform="rotate(180 77.85341990663473 0)" font-family="Helvetica Neue, Helvetica, Arial, sans-serif">Title</text></g><g class="relationship" transform="translate(-19.83226304988406 262.5307757283502) rotate(288.88952472248)"><path class="b-outline" fill="#A5ABB6" stroke="none" d="M 24.018736134675446,-6.953439040707552 L 24.277555179777966,-5.987513214418485 A 240.21245269370735 240.21245269370735 0 0 1 61.359325426143,-12.858667699164698 L 61.25487710508303,-13.853198014553726 A 241.21245269370735 241.21245269370735 0 0 0 24.018736134675446,-6.953439040707552 Z M 106.86111382303125,-14.307345050667664 L 106.77649132204763,-13.310931967490149 A 240.21245269370735 240.21245269370735 0 0 1 143.98774048946325,-7.179587583265659 L 143.26914375932037,-4.266922353715929 L 150.9037254801031,-5.98830608452392 L 144.94586946298708,-11.063141222665298 L 144.2272727328442,-8.150475993115569 A 241.21245269370735 241.21245269370735 0 0 0 106.86111382303125,-14.307345050667664"/><text text-anchor="middle" pointer-events="none" font-size="8px" fill="#000000" x="84.05221635036213" y="-11.660620199970936" font-family="Helvetica Neue, Helvetica, Arial, sans-serif">Ex_spouse</text></g><g class="relationship" transform="translate(36.87997248094141 96.78901635944887) rotate(468.88952472248)"><path class="b-outline" fill="#A5ABB6" stroke="none" d="M 24.018736134675446,-6.953439040707552 L 24.277555179777966,-5.987513214418485 A 240.21245269370735 240.21245269370735 0 0 1 67.54472906329629,-13.427524415842441 L 67.46603046323452,-14.424422871227108 A 241.21245269370735 241.21245269370735 0 0 0 24.018736134675446,-6.953439040707552 Z M 100.63981677177975,-14.754767530486703 L 100.58098604473557,-13.756499557668036 A 240.21245269370735 240.21245269370735 0 0 1 143.98774048946325,-7.179587583265659 L 143.26914375932037,-4.266922353715929 L 150.9037254801031,-5.98830608452392 L 144.94586946298708,-11.063141222665298 L 144.2272727328442,-8.150475993115569 A 241.21245269370735 241.21245269370735 0 0 0 100.63981677177975,-14.754767530486703"/><text text-anchor="middle" pointer-events="none" font-size="8px" fill="#000000" x="84.05221635036213" y="-11.660620199970936" transform="rotate(180 84.05221635036213 -14.660620199970936)" font-family="Helvetica Neue, Helvetica, Arial, sans-serif">Spouse</text></g><g class="relationship" transform="translate(36.87997248094141 96.78901635944887) rotate(343.9650972335314)"><path class="b-outline" fill="#A5ABB6" stroke="none" d="M 24.018736134675446,6.953439040707552 L 24.277555179777966,5.987513214418485 A 191.30060852598498 191.30060852598498 0 0 0 55.08899237702494,11.589670214879447 L 54.99123626546275,12.584880616077214 A 192.30060852598498 192.30060852598498 0 0 1 24.018736134675446,6.953439040707552 Z M 88.16692408847099,12.967725737104473 L 88.09216026846715,11.970524467942397 A 191.30060852598498 191.30060852598498 0 0 0 119.02467202598706,7.080888327226667 L 118.3152930590011,4.165964403485613 L 125.94439100921383,5.911491391549617 L 119.97051064863498,10.967453558881406 L 119.26113168164903,8.05252963514035 A 192.30060852598498 192.30060852598498 0 0 1 88.16692408847099,12.967725737104473"/><text text-anchor="middle" pointer-events="none" font-size="8px" fill="#000000" x="71.57657773806827" y="15.993153613324722" font-family="Helvetica Neue, Helvetica, Arial, sans-serif">Spouse</text></g><g class="relationship" transform="translate(181.27027791349977 55.290555743046056) rotate(523.9650972335314)"><path class="b-outline" fill="#A5ABB6" stroke="none" d="M 24.018736134675446,6.953439040707552 L 24.277555179777966,5.987513214418485 A 191.30060852598498 191.30060852598498 0 0 0 55.08899237702494,11.589670214879447 L 54.99123626546275,12.584880616077214 A 192.30060852598498 192.30060852598498 0 0 1 24.018736134675446,6.953439040707552 Z M 88.16692408847099,12.967725737104473 L 88.09216026846715,11.970524467942397 A 191.30060852598498 191.30060852598498 0 0 0 119.02467202598706,7.080888327226667 L 118.3152930590011,4.165964403485613 L 125.94439100921383,5.911491391549617 L 119.97051064863498,10.967453558881406 L 119.26113168164903,8.05252963514035 A 192.30060852598498 192.30060852598498 0 0 1 88.16692408847099,12.967725737104473"/><text text-anchor="middle" pointer-events="none" font-size="8px" fill="#000000" x="71.57657773806827" y="15.993153613324722" transform="rotate(180 71.57657773806827 12.993153613324722)" font-family="Helvetica Neue, Helvetica, Arial, sans-serif">Spouse</text></g><g class="relationship" transform="translate(188.34311658149915 -174.16625705375816) rotate(418.1730930462884)"><path class="b-outline" fill="#A5ABB6" stroke="none" d="M 25 0.5 L 77.69554572935255 0.5 L 77.69554572935255 -0.5 L 25 -0.5 Z M 111.26195197935255 0.5 L 163.9574977087051 0.5 L 163.9574977087051 3.5 L 170.9574977087051 0 L 163.9574977087051 -3.5 L 163.9574977087051 -0.5 L 111.26195197935255 -0.5 Z"/><text text-anchor="middle" pointer-events="none" font-size="8px" fill="#000000" x="94.47874885435255" y="3" font-family="Helvetica Neue, Helvetica, Arial, sans-serif">Part_Of</text></g><g class="relationship" transform="translate(181.27027791349977 55.290555743046056) rotate(330.3060306504335)"><path class="b-outline" fill="#A5ABB6" stroke="none" d="M 25 0.5 L 43.26811169073112 0.5 L 43.26811169073112 -0.5 L 25 -0.5 Z M 76.83451794073112 0.5 L 95.10262963146224 0.5 L 95.10262963146224 3.5 L 102.10262963146224 0 L 95.10262963146224 -3.5 L 95.10262963146224 -0.5 L 76.83451794073112 -0.5 Z"/><text text-anchor="middle" pointer-events="none" font-size="8px" fill="#000000" x="60.05131481573112" y="3" font-family="Helvetica Neue, Helvetica, Arial, sans-serif">Part_Of</text></g><g class="relationship" transform="translate(237.11512919427483 374.83126577219093) rotate(278.1189181738399)"><path class="b-outline" fill="#A5ABB6" stroke="none" d="M 25 0.5 L 172.90469799824672 0.5 L 172.90469799824672 -0.5 L 25 -0.5 Z M 206.47110424824672 0.5 L 354.37580224649344 0.5 L 354.37580224649344 3.5 L 361.37580224649344 0 L 354.37580224649344 -3.5 L 354.37580224649344 -0.5 L 206.47110424824672 -0.5 Z"/><text text-anchor="middle" pointer-events="none" font-size="8px" fill="#000000" x="189.68790112324672" y="3" font-family="Helvetica Neue, Helvetica, Arial, sans-serif">Part_Of</text></g><g class="relationship" transform="translate(241.75626376737011 -247.6154412373145) rotate(438.24595611816164)"><path class="b-outline" fill="#A5ABB6" stroke="none" d="M 25 0.5 L 102.25811301170825 0.5 L 102.25811301170825 -0.5 L 25 -0.5 Z M 135.82451926170825 0.5 L 213.0826322734165 0.5 L 213.0826322734165 3.5 L 220.0826322734165 0 L 213.0826322734165 -3.5 L 213.0826322734165 -0.5 L 135.82451926170825 -0.5 Z"/><text text-anchor="middle" pointer-events="none" font-size="8px" fill="#000000" x="119.04131613670825" y="3" font-family="Helvetica Neue, Helvetica, Arial, sans-serif">Part_Of</text></g></g><g class="layer nodes"><g class="node" aria-label="graph-node409" transform="translate(-0.9829239556688416,14.477404664227626)"><circle class="b-outline" cx="0" cy="0" r="25" fill="#8DCC93" stroke="#5db665" stroke-width="2px"/><text class="caption" text-anchor="middle" pointer-events="none" x="0" y="0" font-size="10px" fill="#2A2C34" font-family="Helvetica Neue, Helvetica, Arial, sans-serif"> Klingon</text><text class="caption" text-anchor="middle" pointer-events="none" x="0" y="10" font-size="10px" fill="#2A2C34" font-family="Helvetica Neue, Helvetica, Arial, sans-serif"> Empire</text></g><g class="node" aria-label="graph-node708" transform="translate(167.1468756742768,155.91681429648926)"><circle class="b-outline" cx="0" cy="0" r="25" fill="#57C7E3" stroke="#23b3d7" stroke-width="2px"/><text class="caption" text-anchor="middle" pointer-events="none" x="0" y="5" font-size="10px" fill="#2A2C34" font-family="Helvetica Neue, Helvetica, Arial, sans-serif"> Gowron</text></g><g class="node" aria-label="graph-node656" transform="translate(137.7722906804341,-33.909541707730014)"><circle class="b-outline" cx="0" cy="0" r="25" fill="#57C7E3" stroke="#23b3d7" stroke-width="2px"/><text class="caption" text-anchor="middle" pointer-events="none" x="0" y="5" font-size="10px" fill="#2A2C34" font-family="Helvetica Neue, Helvetica, Arial, sans-serif"> Ch'Pok</text></g><g class="node" aria-label="graph-node649" transform="translate(36.87997248094141,96.78901635944887)"><circle class="b-outline" cx="0" cy="0" r="25" fill="#57C7E3" stroke="#23b3d7" stroke-width="2px"/><text class="caption" text-anchor="middle" pointer-events="none" x="0" y="5" font-size="10px" fill="#2A2C34" font-family="Helvetica Neue, Helvetica, Arial, sans-serif"> Grilka</text></g><g class="node" aria-label="graph-node484" transform="translate(102.95924359491102,-125.61929236525307)"><circle class="b-outline" cx="0" cy="0" r="25" fill="#57C7E3" stroke="#23b3d7" stroke-width="2px"/><text class="caption" text-anchor="middle" pointer-events="none" x="0" y="5" font-size="10px" fill="#2A2C34" font-family="Helvetica Neue, Helvetica, Arial, sans-serif"> Darok</text></g><g class="node" aria-label="graph-node480" transform="translate(6.383881286115562,-142.47883365067187)"><circle class="b-outline" cx="0" cy="0" r="25" fill="#57C7E3" stroke="#23b3d7" stroke-width="2px"/><text class="caption" text-anchor="middle" pointer-events="none" x="0" y="5" font-size="10px" fill="#2A2C34" font-family="Helvetica Neue, Helvetica, Arial, sans-serif"> Kurn</text></g><g class="node" aria-label="graph-node465" transform="translate(-105.07692059616973,-167.55207565228176)"><circle class="b-outline" cx="0" cy="0" r="25" fill="#57C7E3" stroke="#23b3d7" stroke-width="2px"/><text class="caption" text-anchor="middle" pointer-events="none" x="0" y="5" font-size="10px" fill="#2A2C34" font-family="Helvetica Neue, Helvetica, Arial, sans-serif"> Noggra</text></g><g class="node" aria-label="graph-node397" transform="translate(-35.03721820468608,167.9693698454481)"><circle class="b-outline" cx="0" cy="0" r="25" fill="#57C7E3" stroke="#23b3d7" stroke-width="2px"/><text class="caption" text-anchor="middle" pointer-events="none" x="0" y="5" font-size="10px" fill="#2A2C34" font-family="Helvetica Neue, Helvetica, Arial, sans-serif"> Thopok</text></g><g class="node" aria-label="graph-node415" transform="translate(-134.62595777705732,-72.93884535977399)"><circle class="b-outline" cx="0" cy="0" r="25" fill="#57C7E3" stroke="#23b3d7" stroke-width="2px"/><text class="caption" text-anchor="middle" pointer-events="none" x="0" y="-5" font-size="10px" fill="#2A2C34" font-family="Helvetica Neue, Helvetica, Arial, sans-serif"> Doran,</text><text class="caption" text-anchor="middle" pointer-events="none" x="0" y="5" font-size="10px" fill="#2A2C34" font-family="Helvetica Neue, Helvetica, Arial, sans-serif"> daughter</text><text class="caption" text-anchor="middle" pointer-events="none" x="0" y="15" font-size="10px" fill="#2A2C34" font-family="Helvetica Neue, Helvetica, Arial, sans-serif"> of </text></g><g class="node" aria-label="graph-node64" transform="translate(-79.92942656533374,250.76252722804247)"><circle class="b-outline" cx="0" cy="0" r="25" fill="#F79767" stroke="#f36924" stroke-width="2px"/><text class="caption" text-anchor="middle" pointer-events="none" x="0" y="-5" font-size="10px" fill="#FFFFFF" font-family="Helvetica Neue, Helvetica, Arial, sans-serif"> Looking</text><text class="caption" text-anchor="middle" pointer-events="none" x="0" y="5" font-size="10px" fill="#FFFFFF" font-family="Helvetica Neue, Helvetica, Arial, sans-serif"> for</text><text class="caption" text-anchor="middle" pointer-events="none" x="0" y="15" font-size="10px" fill="#FFFFFF" font-family="Helvetica Neue, Helvetica, Arial, sans-serif"> par'…</text></g><g class="node" aria-label="graph-node8" transform="translate(55.931635209355015,186.08596856535317)"><circle class="b-outline" cx="0" cy="0" r="25" fill="#F79767" stroke="#f36924" stroke-width="2px"/><text class="caption" text-anchor="middle" pointer-events="none" x="0" y="0" font-size="10px" fill="#FFFFFF" font-family="Helvetica Neue, Helvetica, Arial, sans-serif"> Broken</text><text class="caption" text-anchor="middle" pointer-events="none" x="0" y="10" font-size="10px" fill="#FFFFFF" font-family="Helvetica Neue, Helvetica, Arial, sans-serif"> Link</text></g><g class="node" aria-label="graph-node10" transform="translate(242.62888894114053,276.1400987230771)"><circle class="b-outline" cx="0" cy="0" r="25" fill="#F79767" stroke="#f36924" stroke-width="2px"/><text class="caption" text-anchor="middle" pointer-events="none" x="0" y="-5" font-size="10px" fill="#FFFFFF" font-family="Helvetica Neue, Helvetica, Arial, sans-serif"> By</text><text class="caption" text-anchor="middle" pointer-events="none" x="0" y="5" font-size="10px" fill="#FFFFFF" font-family="Helvetica Neue, Helvetica, Arial, sans-serif"> Inferno's</text><text class="caption" text-anchor="middle" pointer-events="none" x="0" y="15" font-size="10px" fill="#FFFFFF" font-family="Helvetica Neue, Helvetica, Arial, sans-serif"> Light</text></g><g class="node" aria-label="graph-node108" transform="translate(339.08643403718185,298.5143180480766)"><circle class="b-outline" cx="0" cy="0" r="25" fill="#F79767" stroke="#f36924" stroke-width="2px"/><text class="caption" text-anchor="middle" pointer-events="none" x="0" y="-5" font-size="10px" fill="#FFFFFF" font-family="Helvetica Neue, Helvetica, Arial, sans-serif"> Tacking</text><text class="caption" text-anchor="middle" pointer-events="none" x="0" y="5" font-size="10px" fill="#FFFFFF" font-family="Helvetica Neue, Helvetica, Arial, sans-serif"> Into the</text><text class="caption" text-anchor="middle" pointer-events="none" x="0" y="15" font-size="10px" fill="#FFFFFF" font-family="Helvetica Neue, Helvetica, Arial, sans-serif"> Wi</text></g><g class="node" aria-label="graph-node126" transform="translate(141.86881521531924,230.16459734250986)"><circle class="b-outline" cx="0" cy="0" r="25" fill="#F79767" stroke="#f36924" stroke-width="2px"/><text class="caption" text-anchor="middle" pointer-events="none" x="0" y="-5" font-size="10px" fill="#FFFFFF" font-family="Helvetica Neue, Helvetica, Arial, sans-serif"> The</text><text class="caption" text-anchor="middle" pointer-events="none" x="0" y="5" font-size="10px" fill="#FFFFFF" font-family="Helvetica Neue, Helvetica, Arial, sans-serif"> House of</text><text class="caption" text-anchor="middle" pointer-events="none" x="0" y="15" font-size="10px" fill="#FFFFFF" font-family="Helvetica Neue, Helvetica, Arial, sans-serif"> Qua…</text></g><g class="node" aria-label="graph-node145" transform="translate(310.31980955270126,204.49059078032516)"><circle class="b-outline" cx="0" cy="0" r="25" fill="#F79767" stroke="#f36924" stroke-width="2px"/><text class="caption" text-anchor="middle" pointer-events="none" x="0" y="-5" font-size="10px" fill="#FFFFFF" font-family="Helvetica Neue, Helvetica, Arial, sans-serif"> The Way</text><text class="caption" text-anchor="middle" pointer-events="none" x="0" y="5" font-size="10px" fill="#FFFFFF" font-family="Helvetica Neue, Helvetica, Arial, sans-serif"> of the</text><text class="caption" text-anchor="middle" pointer-events="none" x="0" y="15" font-size="10px" fill="#FFFFFF" font-family="Helvetica Neue, Helvetica, Arial, sans-serif"> Warr</text></g><g class="node" aria-label="graph-node159" transform="translate(345.0584522972685,75.95074780890282)"><circle class="b-outline" cx="0" cy="0" r="25" fill="#F79767" stroke="#f36924" stroke-width="2px"/><text class="caption" text-anchor="middle" pointer-events="none" x="0" y="-5" font-size="10px" fill="#FFFFFF" font-family="Helvetica Neue, Helvetica, Arial, sans-serif"> What You</text><text class="caption" text-anchor="middle" pointer-events="none" x="0" y="5" font-size="10px" fill="#FFFFFF" font-family="Helvetica Neue, Helvetica, Arial, sans-serif"> Leave</text><text class="caption" text-anchor="middle" pointer-events="none" x="0" y="15" font-size="10px" fill="#FFFFFF" font-family="Helvetica Neue, Helvetica, Arial, sans-serif"> Behi</text></g><g class="node" aria-label="graph-node160" transform="translate(398.341535195818,159.5706939753716)"><circle class="b-outline" cx="0" cy="0" r="25" fill="#F79767" stroke="#f36924" stroke-width="2px"/><text class="caption" text-anchor="middle" pointer-events="none" x="0" y="0" font-size="10px" fill="#FFFFFF" font-family="Helvetica Neue, Helvetica, Arial, sans-serif"> When It</text><text class="caption" text-anchor="middle" pointer-events="none" x="0" y="10" font-size="10px" fill="#FFFFFF" font-family="Helvetica Neue, Helvetica, Arial, sans-serif"> Rains...</text></g><g class="node" aria-label="graph-node360" transform="translate(59.84088396300092,283.6445884029611)"><circle class="b-outline" cx="0" cy="0" r="25" fill="#D9C8AE" stroke="#c0a378" stroke-width="2px"/><text class="caption" text-anchor="middle" pointer-events="none" x="0" y="5" font-size="10px" fill="#2A2C34" font-family="Helvetica Neue, Helvetica, Arial, sans-serif"> Chancell…</text></g><g class="node" aria-label="graph-node361" transform="translate(153.1646549042757,317.3010497675794)"><circle class="b-outline" cx="0" cy="0" r="25" fill="#8DCC93" stroke="#5db665" stroke-width="2px"/><text class="caption" text-anchor="middle" pointer-events="none" x="0" y="-5" font-size="10px" fill="#2A2C34" font-family="Helvetica Neue, Helvetica, Arial, sans-serif"> Klingon</text><text class="caption" text-anchor="middle" pointer-events="none" x="0" y="5" font-size="10px" fill="#2A2C34" font-family="Helvetica Neue, Helvetica, Arial, sans-serif"> High</text><text class="caption" text-anchor="middle" pointer-events="none" x="0" y="15" font-size="10px" fill="#2A2C34" font-family="Helvetica Neue, Helvetica, Arial, sans-serif"> Cou…</text></g><g class="node" aria-label="graph-node93" transform="translate(329.8331870340531,-99.60529902472368)"><circle class="b-outline" cx="0" cy="0" r="25" fill="#F79767" stroke="#f36924" stroke-width="2px"/><text class="caption" text-anchor="middle" pointer-events="none" x="0" y="0" font-size="10px" fill="#FFFFFF" font-family="Helvetica Neue, Helvetica, Arial, sans-serif"> Rules of</text><text class="caption" text-anchor="middle" pointer-events="none" x="0" y="10" font-size="10px" fill="#FFFFFF" font-family="Helvetica Neue, Helvetica, Arial, sans-serif"> Engag…</text></g><g class="node" aria-label="graph-node70" transform="translate(256.656730127657,120.51896491189325)"><circle class="b-outline" cx="0" cy="0" r="25" fill="#F79767" stroke="#f36924" stroke-width="2px"/><text class="caption" text-anchor="middle" pointer-events="none" x="0" y="-5" font-size="10px" fill="#FFFFFF" font-family="Helvetica Neue, Helvetica, Arial, sans-serif"> Once</text><text class="caption" text-anchor="middle" pointer-events="none" x="0" y="5" font-size="10px" fill="#FFFFFF" font-family="Helvetica Neue, Helvetica, Arial, sans-serif"> More Unto</text><text class="caption" text-anchor="middle" pointer-events="none" x="0" y="15" font-size="10px" fill="#FFFFFF" font-family="Helvetica Neue, Helvetica, Arial, sans-serif"> the </text></g><g class="node" aria-label="graph-node104" transform="translate(-129.20458276147642,-306.08042302134936)"><circle class="b-outline" cx="0" cy="0" r="25" fill="#F79767" stroke="#f36924" stroke-width="2px"/><text class="caption" text-anchor="middle" pointer-events="none" x="0" y="0" font-size="10px" fill="#FFFFFF" font-family="Helvetica Neue, Helvetica, Arial, sans-serif"> Sons of</text><text class="caption" text-anchor="middle" pointer-events="none" x="0" y="10" font-size="10px" fill="#FFFFFF" font-family="Helvetica Neue, Helvetica, Arial, sans-serif"> Mogh</text></g><g class="node" aria-label="graph-node677" transform="translate(-43.63637631536688,-355.6239289826927)"><circle class="b-outline" cx="0" cy="0" r="25" fill="#D9C8AE" stroke="#c0a378" stroke-width="2px"/><text class="caption" text-anchor="middle" pointer-events="none" x="0" y="5" font-size="10px" fill="#2A2C34" font-family="Helvetica Neue, Helvetica, Arial, sans-serif"> Captain</text></g><g class="node" aria-label="graph-node759" transform="translate(65.10268138401446,-315.81918334757944)"><circle class="b-outline" cx="0" cy="0" r="25" fill="#57C7E3" stroke="#23b3d7" stroke-width="2px"/><text class="caption" text-anchor="middle" pointer-events="none" x="0" y="5" font-size="10px" fill="#2A2C34" font-family="Helvetica Neue, Helvetica, Arial, sans-serif"> Worf</text></g><g class="node" aria-label="graph-node853" transform="translate(-255.60232523016396,-80.58284121915361)"><circle class="b-outline" cx="0" cy="0" r="25" fill="#57C7E3" stroke="#23b3d7" stroke-width="2px"/><text class="caption" text-anchor="middle" pointer-events="none" x="0" y="5" font-size="10px" fill="#2A2C34" font-family="Helvetica Neue, Helvetica, Arial, sans-serif"> Rodek</text></g><g class="node" aria-label="graph-node103" transform="translate(42.86215097590729,-54.37827867744324)"><circle class="b-outline" cx="0" cy="0" r="25" fill="#F79767" stroke="#f36924" stroke-width="2px"/><text class="caption" text-anchor="middle" pointer-events="none" x="0" y="0" font-size="10px" fill="#FFFFFF" font-family="Helvetica Neue, Helvetica, Arial, sans-serif"> Sons and</text><text class="caption" text-anchor="middle" pointer-events="none" x="0" y="10" font-size="10px" fill="#FFFFFF" font-family="Helvetica Neue, Helvetica, Arial, sans-serif"> Daugh…</text></g><g class="node" aria-label="graph-node717" transform="translate(-130.8447387111742,117.48018340937747)"><circle class="b-outline" cx="0" cy="0" r="25" fill="#57C7E3" stroke="#23b3d7" stroke-width="2px"/><text class="caption" text-anchor="middle" pointer-events="none" x="0" y="5" font-size="10px" fill="#2A2C34" font-family="Helvetica Neue, Helvetica, Arial, sans-serif"> Kang</text></g><g class="node" aria-label="graph-node355" transform="translate(-159.94090244617092,22.54209870233847)"><circle class="b-outline" cx="0" cy="0" r="25" fill="#57C7E3" stroke="#23b3d7" stroke-width="2px"/><text class="caption" text-anchor="middle" pointer-events="none" x="0" y="5" font-size="10px" fill="#2A2C34" font-family="Helvetica Neue, Helvetica, Arial, sans-serif"> Koloth</text></g><g class="node" aria-label="graph-node6" transform="translate(-301.94506584043154,130.9017289923618)"><circle class="b-outline" cx="0" cy="0" r="25" fill="#F79767" stroke="#f36924" stroke-width="2px"/><text class="caption" text-anchor="middle" pointer-events="none" x="0" y="0" font-size="10px" fill="#FFFFFF" font-family="Helvetica Neue, Helvetica, Arial, sans-serif"> Blood</text><text class="caption" text-anchor="middle" pointer-events="none" x="0" y="10" font-size="10px" fill="#FFFFFF" font-family="Helvetica Neue, Helvetica, Arial, sans-serif"> Oath</text></g><g class="node" aria-label="graph-node718" transform="translate(-322.48873146010556,29.733691354706504)"><circle class="b-outline" cx="0" cy="0" r="25" fill="#D9C8AE" stroke="#c0a378" stroke-width="2px"/><text class="caption" text-anchor="middle" pointer-events="none" x="0" y="0" font-size="10px" fill="#2A2C34" font-family="Helvetica Neue, Helvetica, Arial, sans-serif"> Dahar</text><text class="caption" text-anchor="middle" pointer-events="none" x="0" y="10" font-size="10px" fill="#2A2C34" font-family="Helvetica Neue, Helvetica, Arial, sans-serif"> master</text></g><g class="node" aria-label="graph-node429" transform="translate(-19.83226304988406,262.5307757283502)"><circle class="b-outline" cx="0" cy="0" r="25" fill="#57C7E3" stroke="#23b3d7" stroke-width="2px"/><text class="caption" text-anchor="middle" pointer-events="none" x="0" y="5" font-size="10px" fill="#2A2C34" font-family="Helvetica Neue, Helvetica, Arial, sans-serif"> Quark</text></g><g class="node" aria-label="graph-node487" transform="translate(188.34311658149915,-174.16625705375816)"><circle class="b-outline" cx="0" cy="0" r="25" fill="#57C7E3" stroke="#23b3d7" stroke-width="2px"/><text class="caption" text-anchor="middle" pointer-events="none" x="0" y="5" font-size="10px" fill="#2A2C34" font-family="Helvetica Neue, Helvetica, Arial, sans-serif"> Katogh</text></g><g class="node" aria-label="graph-node516" transform="translate(181.27027791349977,55.290555743046056)"><circle class="b-outline" cx="0" cy="0" r="25" fill="#57C7E3" stroke="#23b3d7" stroke-width="2px"/><text class="caption" text-anchor="middle" pointer-events="none" x="0" y="5" font-size="10px" fill="#2A2C34" font-family="Helvetica Neue, Helvetica, Arial, sans-serif"> Kozak</text></g><g class="node" aria-label="graph-node359" transform="translate(237.11512919427483,374.83126577219093)"><circle class="b-outline" cx="0" cy="0" r="25" fill="#57C7E3" stroke="#23b3d7" stroke-width="2px"/><text class="caption" text-anchor="middle" pointer-events="none" x="0" y="5" font-size="10px" fill="#2A2C34" font-family="Helvetica Neue, Helvetica, Arial, sans-serif"> Martok</text></g><g class="node" aria-label="graph-node346" transform="translate(241.75626376737011,-247.6154412373145)"><circle class="b-outline" cx="0" cy="0" r="25" fill="#57C7E3" stroke="#23b3d7" stroke-width="2px"/><text class="caption" text-anchor="middle" pointer-events="none" x="0" y="0" font-size="10px" fill="#2A2C34" font-family="Helvetica Neue, Helvetica, Arial, sans-serif"> Alexander</text><text class="caption" text-anchor="middle" pointer-events="none" x="0" y="10" font-size="10px" fill="#2A2C34" font-family="Helvetica Neue, Helvetica, Arial, sans-serif"> Rozhe…</text></g><g class="node" aria-label="graph-node750" transform="translate(291.68225528812405,-7.6719228569750655)"><circle class="b-outline" cx="0" cy="0" r="25" fill="#8DCC93" stroke="#5db665" stroke-width="2px"/><text class="caption" text-anchor="middle" pointer-events="none" x="0" y="-5" font-size="10px" fill="#2A2C34" font-family="Helvetica Neue, Helvetica, Arial, sans-serif"> Klingon</text><text class="caption" text-anchor="middle" pointer-events="none" x="0" y="5" font-size="10px" fill="#2A2C34" font-family="Helvetica Neue, Helvetica, Arial, sans-serif"> Defense</text><text class="caption" text-anchor="middle" pointer-events="none" x="0" y="15" font-size="10px" fill="#2A2C34" font-family="Helvetica Neue, Helvetica, Arial, sans-serif"> For</text></g></g></svg>